<svg xmlns="http://www.w3.org/2000/svg" viewBox="0 0 260 260"><circle class="st0" cx="130.2" cy="130" r="128.3"/><path class="st0" d="M236.4 92.4V91.5c-.1-2.9-.9-5.9-2.4-8.4-1.5-2.6-3.5-4.8-5.9-6.5-2.4-1.6-5.3-2.7-8.2-3.1-.7-.1-1.5-.1-2.2-.2h-26.8V40.1H69.7v33.2H41.9c-.7 0-1.4.1-2.1.2-1.4.2-2.8.7-4.2 1.2-5.3 2.3-9.5 7-11 12.6l-.3 1.1-.2 1.1c-.1.7-.2 1.4-.2 2.1V225H37V92.5 92c0-.2 0-.5.1-.7V91l.1-.3c.4-1.7 1.8-3.2 3.4-3.9.4-.1.8-.3 1.3-.4.2 0 .4-.1.7-.1h27V161h121.1V86.3h26.7c.2 0 .5 0 .7.1.9.1 1.8.4 2.5.9.8.5 1.4 1.2 1.8 2 .5.8.7 1.7.7 2.6V225h13.1V92.4h.2zm-58.8 55.7H82.8V53.3h94.8v94.8z"/><path class="st0" d="M153.4 225.2h-13.1v-26.6h-20.1v26.6h-13.1v-39.8h46.3z"/><g><path class="st0" d="M99.6 70h61.3v23.6h-20.7l20.7 20.7v17h-17l-20.7-20.7v20.7H99.6V70z"/></g></svg>
