<svg xmlns="http://www.w3.org/2000/svg" viewBox="0 0 260 260"><circle fill="currentColor" cx="130.2" cy="130" r="128.3"/><path class="st0" d="M193.8 43.3l-14.4 15H73.2c-.4 0-.9 0-1.3.1l-1.3.2c-.4.1-.9.2-1.3.3-1.7.5-3.3 1.3-4.8 2.3-4.2 2.9-7 7.6-7.4 12.6V186.1l.1.9c.1 1.3.3 2.5.7 3.7.7 2.4 2 4.6 3.7 6.5s3.8 3.4 6.1 4.4c1.2.4 2.4.8 3.6 1 .6.1 1.2.2 1.9.2l.9.1H186.3c.6-.1 1.2-.2 1.9-.3.6-.2 1.2-.3 1.8-.5l.9-.3c.3-.1.6-.2.9-.4 2.3-1 4.3-2.6 6-4.5s2.8-4.2 3.4-6.6l.2-.9.1-.9c.1-.6.1-1.3.2-1.9.1-.5 0-1.6 0-2.5v-21.7l15-14.4v38.5l-.1 1.1c0 1.5-.3 3-.5 4.6-.6 3-1.6 5.9-3.1 8.7-1.5 2.7-3.2 5.2-5.4 7.4s-4.6 4.1-7.2 5.6c-2.7 1.5-5.5 2.7-8.6 3.3-.7.2-1.5.3-2.3.4s-1.5.3-2.3.3l-2.3.1H75.8c-1 0-1.7 0-3-.1l-1.8-.1c-.6 0-1.2-.2-1.8-.2l-1.8-.3-1.7-.4c-4.6-1.2-9-3.5-12.6-6.7-3.6-3.1-6.5-7.1-8.5-11.5-.5-1.1-.9-2.2-1.3-3.4-.3-1.2-.6-2.3-.9-3.5l-.3-1.8c-.1-.6-.2-1.2-.2-1.8-.1-1.2-.1-2.5-.1-3.3V75.4v-.9c.1-4.8 1.3-9.6 3.5-13.8 4.3-8.6 12.7-14.9 22.1-16.9 1.2-.2 2.4-.4 3.6-.5l1.8-.1H179l14.8.1z"/><path class="st0" d="M98.4 101.6l-12 9 40.7 54.3.6.8.3.4.1-.1.2-.2 1.4-1.2 2.9-2.5 5.8-4.9 6.6-5.6 11.6-9.8 23.1-19.7 66.2-56.2 1.3-20.7-11 9.4-66.1 56.2-39.6 33.7-32.1-42.9z"/></svg>
