<svg xmlns="http://www.w3.org/2000/svg" width="16" height="16" viewBox="0 0 16 16"><path d="M7.455 4.93h1.08v4.437h-1.08V4.93z"/><circle cx="8.01" cy="11.584" r=".832"/><path fill="none" d="M13.446 14.08h-10.9c-.36 0-.72-.192-.915-.554L.966 12.5c-.194-.332-.194-.748 0-1.08l5.437-8.987c.193-.332.526-.554.915-.554h1.36c.36 0 .72.192.913.553l5.463 9.015c.194.333.194.75 0 1.08l-.692 1.028c-.194.332-.554.524-.914.523z"/><path d="M13.446 13.556v1.08H2.49c-.11 0-.222-.027-.333-.056-.223-.056-.416-.166-.61-.304-.083-.084-.14-.168-.222-.25-.028-.055-.057-.084-.11-.14-.03-.026-.03-.056-.03-.056l-.025-.055c-.083-.14-.167-.25-.25-.39-.083-.14-.167-.25-.25-.39l-.14-.19c-.083-.14-.11-.224-.167-.333-.138-.445-.11-.943.14-1.36.167-.276.333-.554.5-.804.332-.557.665-1.11 1-1.666.664-1.11 1.356-2.246 2.05-3.383.333-.555.694-1.137 1.027-1.69.166-.278.333-.557.5-.86l.275-.39.14-.22c.055-.112.138-.195.22-.278.168-.167.39-.305.64-.39.11-.055.222-.083.36-.083h1.497c.112 0 .25.027.36.056.222.057.444.195.64.334l.25.25c.025.055.054.082.08.138l.057.11c.083.14.166.278.25.39 1.275 2.135 2.495 4.104 3.52 5.824.526.857 1 1.636 1.416 2.33l.166.25.084.11c.026.054.083.138.083.192.108.25.14.527.108.805-.025.25-.11.5-.25.72-.083.14-.166.25-.25.39-.165.25-.304.442-.415.638-.166.277-.416.473-.638.584-.222.11-.388.14-.527.166-.11.027-.192 0-.192 0v-1.08s.083 0 .222-.058c.056-.028.14-.084.194-.194.11-.193.275-.416.416-.666.083-.11.167-.25.25-.39.025-.054.083-.138.083-.22s0-.195-.03-.278c0-.026-.026-.026-.026-.056l-.083-.11-.165-.25c-.416-.692-.888-1.47-1.414-2.33-1.024-1.69-2.246-3.688-3.52-5.823-.084-.14-.167-.28-.25-.39l-.057-.083c0-.027-.027-.057-.027-.057l-.084-.082c-.025-.08-.082-.11-.165-.11-.027 0-.083-.025-.11-.025H7.484c-.194 0-.25 0-.306.027-.082.028-.14.057-.193.11-.028.03-.056.057-.083.113l-.11.194-.278.415c-.167.276-.333.556-.5.86-.333.554-.693 1.136-1.026 1.69-.693 1.138-1.36 2.275-2.052 3.384l-1 1.663c-.166.277-.332.556-.5.805-.054.14-.082.332-.026.472 0 .028.027.083.027.083l.14.195c.083.14.167.25.25.388.083.14.167.25.25.39l.028.055.026.058c0 .027.028.027.028.057l.083.082c.057.057.11.084.194.084h11.012v-.004z"/></svg>