<svg viewBox="0 0 16 16" xmlns="http://www.w3.org/2000/svg" fill-rule="evenodd" clip-rule="evenodd" stroke-linejoin="round" stroke-miterlimit="1.414"><path d="M7.993 10.852L11.22 7.64l-.044-1.99-.984.983L8.885 7.94l-.148.148V2.105H7.263v5.983L5.808 6.633l-.984-.984-.044 1.99 3.213 3.212z" fill-rule="nonzero"/><path d="M14.84 2.72a1.222 1.222 0 0 0-1.007-.615H12.79V3.58h.737v8.84H2.474V3.58h.736V2.104H2.164a1.22 1.22 0 0 0-1.002.608 1.353 1.353 0 0 0-.162.7v9.26c0 .65.518 1.193 1.168 1.222h11.668c.508-.02.952-.36 1.106-.844.04-.117.06-.242.062-.367V3.428c.01-.247-.048-.49-.165-.708z" fill-rule="nonzero"/></svg>