<svg width="100%" height="100%" viewBox="0 0 16 16" version="1.1" xmlns="http://www.w3.org/2000/svg" xmlns:xlink="http://www.w3.org/1999/xlink" xml:space="preserve" style="fill-rule:evenodd;clip-rule:evenodd;stroke-linejoin:round;stroke-miterlimit:1.41421;"><path d="M12.85,16l-12.105,0c-0.409,0 -0.745,-0.336 -0.745,-0.745l0,-12.105c0,-0.408 0.336,-0.745 0.745,-0.745l6.052,0c0.403,0.009 0.73,0.342 0.73,0.745c0,0.403 -0.327,0.737 -0.73,0.745l-5.307,0l0,10.615l10.615,0l0,-5.307c0.008,-0.403 0.342,-0.73 0.745,-0.73c0.403,0 0.736,0.327 0.745,0.73l0,6.052c0,0.409 -0.337,0.745 -0.745,0.745l0,0Z" style="fill-rule:nonzero;"/><path d="M15.782,1.984l-1.739,-1.739c-0.14,-0.14 -0.329,-0.219 -0.527,-0.219c-0.198,0 -0.388,0.079 -0.528,0.219l-1.556,1.557c-0.007,0.005 -0.012,0.01 -0.017,0.017l-0.002,0l-6.08,6.082c-0.067,0.067 -0.121,0.147 -0.158,0.233l-1.304,3.043c-0.118,0.279 -0.055,0.604 0.159,0.819c0.139,0.14 0.329,0.218 0.526,0.218c0.102,0.001 0.202,-0.02 0.295,-0.059l3.041,-1.302c0.087,-0.038 0.166,-0.091 0.233,-0.159l7.657,-7.657c0.289,-0.289 0.289,-0.764 0,-1.053l0,0ZM7.173,9.54l-1.2,0.512l0.514,-1.199l5.323,-5.321l0.685,0.685l-5.322,5.323ZM13.285,3.428l-0.685,-0.687l0.916,-0.917l0.685,0.686l-0.916,0.918Z" style="fill-rule:nonzero;"/></svg>