<svg viewBox="0 0 16 16" xmlns="http://www.w3.org/2000/svg" fill-rule="evenodd" clip-rule="evenodd" stroke-linejoin="round" stroke-miterlimit="1.414"><path d="M9.628 2.302V3.93h2.475l-5.98 5.694-1.11 1.06h2.3l5.978-5.7V8h1.63V2.302H9.628z" fill-rule="nonzero"/><path d="M11.663 11.403v.668H2.71V5.56H7.29L8.814 3.93H2.497c-.51-.01-.987.257-1.246.696a1.49 1.49 0 0 0-.17.73V12.4a1.357 1.357 0 0 0 1.026 1.254c.198.04.4.056.603.045h9.324c.194-.017.383-.074.553-.168a1.33 1.33 0 0 0 .672-.896c.02-.103.03-.208.03-.313V8.99l-1.627 1.522v.89z" fill-rule="nonzero"/></svg>