<svg enable-background="new 0 0 49.8 37.4" version="1.1" viewBox="0 0 49.8 37.4" xml:space="preserve" xmlns="http://www.w3.org/2000/svg"><path d="m28 28.2c-0.1-0.5-0.3-1-0.6-1.4-0.1-0.2-0.3-0.4-0.5-0.6l-0.3-0.3-0.7-0.7-0.2-0.2c0.2-0.1 0.4-0.4 0.6-0.7s0.3-0.5 0.5-0.8c0.2-0.6 0.3-1.1 0.4-1.6v-0.8c0-0.3 0-0.6-0.1-0.8-0.1-0.6-0.3-1.1-0.6-1.6-0.6-1-1.5-1.7-2.6-2.1s-2.3-0.4-3.4 0c-2.2 0.8-3.5 3.1-3.3 5.3 0.1 1.1 0.5 2.2 1.4 3.1 0.8 0.9 2.1 1.4 3.2 1.3v-3c-0.5 0-0.8-0.1-1.1-0.4s-0.5-0.7-0.5-1.2c-0.1-0.9 0.5-2 1.3-2.2 0.4-0.1 0.9-0.1 1.3 0 0.4 0.2 0.8 0.5 1 0.8 0.5 0.6 0.3 2.2-0.2 2.5-1 0.8-1.4 2.1-0.9 3.3 0.1 0.3 0.2 0.5 0.5 0.9l0.1 0.2 0.1 0.1 0.1 0.1 0.2 0.2 0.7 0.7 0.3 0.3 0.1 0.1c0.1 0.1 0.1 0.2 0.1 0.3v0.9 0.2c0 0.1 0 0.1-0.1 0.1l-0.2 0.3-0.5 0.8h-0.1c-0.1 0.1-0.1 0.2-0.2 0.3-0.1 0.2-0.2 0.5-0.3 0.7s-0.1 0.5-0.1 0.8v0.5 3.7h3.1v-3.7-0.4-0.2c0-0.1 0-0.1 0.1-0.2v-0.1l0.1-0.1 0.5-0.8 0.3-0.4c0.1-0.2 0.2-0.4 0.3-0.7 0.1-0.2 0.2-0.5 0.2-0.7v-0.4-0.3-0.3-0.8z"/><path d="m20.8 31.7c0-0.1-0.1-0.2-0.1-0.3l-0.1-0.1-0.1-0.3-0.3-0.5c-1.4-2.8-2.7-5.6-2.7-5.6l-4-1.3 1.3 2.6 2.7 5.6 0.3 0.7 0.1 0.2v0.1 0.1 4.3h3.1v-2-2-0.3-0.4c0-0.1-0.1-0.5-0.2-0.8z"/><path d="m7.8 7.8v3.1c2.5 0 4.7-2.5 4.7-5.5 0-1.6-0.7-3.2-2-4.2s-3-1.4-4.6-1.1c-2.1 0.4-3.8 2.1-4.2 4.2-0.4 1.6 0 3.2 1 4.5l0.4 0.4v0.8l-1.4 1.2c-1 0.8-1.7 2-1.7 3.3v6.2c0 0.8 0.1 1.7 0.4 2.5l1.9 5.7v0.2 8.2h3.1v-8.2c0-0.4-0.1-0.8-0.2-1.2l-1.9-5.7c-0.2-0.5-0.2-1-0.2-1.5v-6.2c0-0.3 0.1-0.5 0.4-0.7l1.7-1.5c0.6-0.4 1-1.1 1-1.9v-1.5c0-0.7-0.3-1.3-0.8-1.8-0.1 0-0.1-0.1-0.2-0.2-0.5-0.6-0.6-1.3-0.5-2 0.2-0.9 0.9-1.6 1.8-1.8 0.7-0.2 1.4 0 2 0.5 0.5 0.4 0.8 1.1 0.8 1.8 0 1.4-0.9 2.4-1.5 2.4z"/><path d="m9.8 25l-0.9 2.8c-0.1 0.3-0.2 0.8-0.2 1.2v0.8 7.5h3.1v-6.1-2.2-0.2c0-0.1 0.1-0.3 0.1-0.4l0.3-0.9c0.3-1 0.6-1.7 0.6-1.7l-2-3.7-1 2.9z"/><polygon points="12.3 20.9 16.3 22.5 15.1 19.7 12.5 13.3 12.5 13.2 8.6 11.7 9.7 14.5"/><path d="m41.6 17.2"/><path d="m45.1 23"/><path d="m43.6 27.9l0.1 0.4v0.1c0 0.2-0.2 0.4-0.4 0.4h-0.1c-0.2 0-0.4 0-0.6 0.1-0.4 0.1-0.8 0.2-1.2 0.4-0.7 0.4-1.3 1.1-1.5 1.9-0.1 0.2-0.1 0.4-0.1 0.6v0.5 4.9h3.1v-4.9-0.2-0.1c0-0.1 0.1-0.2 0.2-0.2 0 0 0.1 0 0.1-0.1h0.1c0.2 0 0.4 0 0.6-0.1 1.7-0.3 3-1.9 2.9-3.6 0-0.2 0-0.4-0.1-0.6l-0.1-0.3-0.5-1.1-2.5 1.9z"/><path d="m39 9.3v3.1c2.3 0 4.6-2.4 4.7-5.3s-2.3-5.4-5.2-5.6c-1.5-0.1-2.9 0.5-4 1.5s-1.7 2.4-1.7 3.9c0 1.2 0.4 2.4 1.2 3.4 0.1 0.2 0.3 0.3 0.4 0.4v0.9l-1.2 1.4c-0.7 0.6-1.2 1.4-1.2 2.4l-0.8 7.6-1.4 4.3c-0.4 1.1-0.2 2.3 0.5 3.2s1.7 1.5 2.9 1.5c0.2 0 0.4 0.2 0.4 0.4v5.1h3.1v-5.1c0-1.9-1.6-3.5-3.5-3.5-0.2 0-0.3-0.1-0.3-0.2-0.1-0.1-0.1-0.2-0.1-0.4l1.5-4.6 0.7-7.9c0-0.1 0.1-0.2 0.2-0.3l1.5-1.7c0.5-0.4 0.8-1.1 0.8-1.7v-1.6c0-0.7-0.3-1.3-0.8-1.8l-0.3-0.3c-0.4-0.4-0.6-0.9-0.6-1.4 0-0.6 0.3-1.2 0.7-1.7 0.5-0.4 1.1-0.7 1.7-0.6 1.2 0.1 2.3 1.2 2.2 2.4 0.1 1.3-0.7 2.2-1.4 2.2z"/><path d="m49.5 17.6c0.2-0.7 0.3-1.8 0.2-2.5 0-0.1 0-0.3-0.1-0.4 0-0.1 0.1-0.2 0.1-0.3 0.2-0.6 0.2-1.5-0.3-2.5-0.2-0.5-0.6-0.9-1.1-1.3s-1.1-0.6-1.8-0.7-1.4 0.1-2 0.4l-0.9 0.6c-0.1 0.1-0.2 0.2-0.2 0.3-0.2 0-0.3 0.1-0.5 0.1-0.7 0.2-1.3 0.6-1.8 1.1s-0.9 1.1-1.2 1.6c-0.6 1-1.2 2-1.7 3-0.3 0.5-0.5 0.9-0.8 1.4-0.1 0.2-0.3 0.4-0.4 0.7-0.1 0.1-0.1 0.2-0.2 0.4-0.1 0.1-0.1 0.3-0.2 0.4-0.4 1-0.5 2.1-0.3 3s0.5 1.6 0.9 2.1 0.8 0.8 1.1 1 0.4 0.3 0.4 0.3 0.2 0.1 0.5 0.2 0.8 0.3 1.4 0.4 1.4 0 2.3-0.3c0.8-0.3 1.7-0.9 2.4-1.8l4.2-7.2zm-5.8 2.8l2.8-0.1c-0.2 0.3-0.4 0.7-0.6 1-0.3 0.5-0.5 0.9-0.8 1.4 0 0.1-0.1 0.2-0.1 0.2l-1.3-2.5zm4.5-7.8c0.3 0.6 0.3 1.2 0.2 1.5 0 0.2-0.1 0.3-0.2 0.4 0 0.1-0.1 0.1-0.1 0.1s0 0-0.1 0.1-0.1 0.2-0.3 0.3c-0.3 0.3-0.7 0.6-1.4 0.6-0.3 0-0.7 0-1-0.2-0.3-0.1-0.7-0.4-0.9-0.7-0.5-0.6-0.6-1.7-0.1-2.4 0.4-0.8 1.3-1.2 2.1-1.1 0.4 0 0.8 0.2 1.1 0.4 0.3 0.4 0.6 0.7 0.7 1zm-6.1 0.8c0.1-0.1 0.3-0.2 0.4-0.3v0.7c0 0.7 0.3 1.4 0.7 1.9s0.9 0.9 1.5 1.2c0.6 0.2 1.2 0.3 1.7 0.3 0.8-0.1 1.5-0.4 1.9-0.7 0 0.2-0.1 0.3-0.1 0.5-0.1 0.5-0.4 0.9-0.7 1.4-0.1 0.2-0.2 0.3-0.3 0.5l-4.4 0.1-2-3.8c0.1-0.2 0.2-0.3 0.3-0.5 0.3-0.6 0.7-0.9 1-1.3zm-1.1 12c-0.5-0.1-0.8-0.2-1-0.3s-0.3-0.1-0.3-0.1-0.1-0.1-0.3-0.2c-0.2-0.2-0.5-0.4-0.8-0.8s-0.5-0.9-0.7-1.5c-0.1-0.6-0.2-1.5 0.1-2.2 0.1-0.3 0.3-0.8 0.6-1.3 0.3-0.4 0.5-0.9 0.8-1.4 0.2-0.3 0.4-0.7 0.6-1l4 7.6c-0.4 0.4-0.9 0.8-1.4 0.9-0.6 0.3-1.1 0.4-1.6 0.3z"/><ellipse transform="matrix(.4988 -.8667 .8667 .4988 10.684 46.872)" cx="45.9" cy="14.2" rx=".7" ry=".7"/></svg>
