<svg enable-background="new 0 0 37.9 44" version="1.1" viewBox="0 0 37.9 44" xml:space="preserve" xmlns="http://www.w3.org/2000/svg"><path d="m25 13.5v-0.6-1.4c0-0.3 0-0.6-0.1-0.9-0.1-0.6-0.5-1.1-0.9-1.6l-0.2-0.2-0.1-0.1-0.2-0.2c-0.1-0.2-0.2-0.3-0.3-0.5-0.2-0.4-0.2-0.7-0.3-1.1-0.1-1.6 1.2-3 2.8-3.1 0.8-0.1 1.5 0.2 2.1 0.7s1 1.2 1.1 2-0.1 1.7-0.6 2.3c-0.4 0.7-1.1 1.1-1.4 1v3.8c1 0 2-0.4 2.8-0.9s1.4-1.2 1.8-1.9c0.9-1.4 1.3-3.1 1.1-4.8s-1.1-3.4-2.4-4.5-3.1-1.7-4.8-1.5c-1.7 0.1-3.4 1-4.5 2.3-1.2 1.3-1.8 3.1-1.7 4.8 0 0.9 0.2 1.7 0.6 2.5 0.2 0.4 0.4 0.8 0.6 1.1 0.1 0.2 0.3 0.4 0.4 0.5l0.2 0.3v0.5 1.3l-5.9 13.6-0.7 1.7c-0.3 0.7-0.4 0.9-0.6 1.1s-0.5 0.4-0.8 0.5c-0.1 0.1-0.3 0.1-0.5 0.1h-0.2-0.4-8.2l-3.7 3.9h12 0.5c0.2 0 0.5 0 0.7-0.1 0.5-0.1 0.9-0.2 1.3-0.4 0.9-0.3 1.6-0.9 2.3-1.6 0.3-0.3 0.6-0.7 0.8-1.1 0.2-0.5 0.3-0.7 0.4-1l0.7-1.7 6.1-13.9c0.1-0.3 0.2-0.6 0.2-0.9z"/><path d="m34.4 16.9l-2.6 0.9-0.7 0.2-0.3 0.1h-0.2c-0.2 0.1-0.5 0.1-0.7 0-0.1 0-0.2 0-0.3-0.1-0.1 0-0.1 0-0.2-0.1l-0.3-0.1-1.3-0.5-2.5-1.1-1.5 3.5s0.6 0.3 1.6 0.7c0.5 0.2 1 0.4 1.6 0.7 0.3 0.1 0.6 0.3 1 0.4 0.5 0.2 1 0.3 1.5 0.4s1 0 1.5 0c0.5-0.1 1-0.3 1.3-0.3 0.6-0.2 1.2-0.4 1.7-0.5 0.9-0.3 1.6-0.5 1.6-0.5l2.3-4.8-3.5 1.1z"/><path d="m12.4 22.8c0.2-0.5 0.4-1 0.7-1.6 0.1-0.3 0.2-0.6 0.4-0.9l0.2-0.4c0-0.1 0.1-0.2 0.1-0.2 0.2-0.3 0.5-0.5 0.8-0.7 0.1 0 0.1-0.1 0.2-0.1s0.2-0.1 0.3-0.1c0.3-0.1 0.5-0.2 0.8-0.2 0.9-0.3 1.6-0.5 1.6-0.5l2.4-4.7-3.5 1.1-2.6 0.8c-1.3 0.4-2.4 1.3-3.1 2.4-0.2 0.3-0.3 0.6-0.5 0.9l-0.3 0.6-0.5 1.3-1 2.5 3.5 1.4c-0.1 0 0.2-0.7 0.5-1.6z"/><path d="m29.7 31c-0.1-1-0.5-1.9-1.1-2.6s-1.3-1.3-2-1.7l-0.3-0.1-0.2-0.1c-0.1-0.1-0.3-0.1-0.4-0.2-0.2-0.1-0.5-0.2-0.7-0.3-1.8-0.8-3.1-1.3-3.1-1.3l-1.5 3.5s1.2 0.5 3.1 1.3c0.4 0.2 0.9 0.4 1.4 0.6 0.3 0.1 0.5 0.3 0.7 0.6s0.3 0.6 0.4 0.9v0.3 0.5 1 10.7h3.9v-10.7-1-0.5c-0.1-0.4-0.1-0.6-0.2-0.9z"/></svg>