<svg enable-background="new 0 0 35.6 43.7" version="1.1" viewBox="0 0 35.6 43.7" xml:space="preserve" xmlns="http://www.w3.org/2000/svg"><path d="m16.6 37.3c-4.3-1.9-4.6-4.3-4.7-4.5 0-0.5-0.5-0.8-0.9-0.8-0.5 0-0.8 0.5-0.8 0.9 0 0.1 0.4 3.5 5.7 5.9 0.4 0.2 0.9 0 1.1-0.4s0-0.9-0.4-1.1zm9.4 5.4c-3.4 1.3-7.2 1.4-10.7 0.1l-1.7-0.8c-5-2.6-8.2-7.8-8.2-13.4 0-0.5 0.4-0.9 0.9-0.9h28.4c0.5 0 0.9 0.4 0.9 0.9 0 5.5-3 10.6-7.9 13.3l-1.7 0.8zm6.3-12.5h-23.6c0.4 6.5 6 11.5 12.6 11.1 5.9-0.4 10.7-5.2 11-11.1z"/><path d="m11.1 10.8c-0.3-0.3-0.9-0.3-1.2 0l0.2 0.2-0.2-0.2c-0.3 0.3-0.3 0.9 0 1.2l14 14c0.2 0.2 0.4 0.3 0.6 0.3s0.4-0.1 0.6-0.2c0.2-0.2 0.3-0.4 0.3-0.6s-0.1-0.4-0.3-0.6l-14-14.1zm-1 0.2z"/><path d="m17.6 21.4c-0.8-0.9-1.6-1.8-2.6-2.2-1.3-0.6-3.2-0.5-4.6-0.4-1.5 0.1-2.7 0.3-2.7 0.3-0.2 0-0.3 0.1-0.4 0.2-0.3 0.3-0.3 0.8-0.1 1.1 0 0 0.5 0.8 1.2 1.6 0.8 0.9 1.6 1.8 2.6 2.2 0.9 0.4 1.9 0.5 3 0.5 0.6 0 1.1 0 1.7-0.1 1.5-0.1 2.7-0.3 2.7-0.3 0.5-0.1 0.8-0.5 0.7-1 0-0.1-0.1-0.2-0.1-0.3-0.2-0.1-0.7-0.8-1.4-1.6zm-1 1.4c-0.3 0-0.6 0.1-1.1 0.1-1.7 0.1-3.2 0-3.9-0.3-0.4-0.2-1.3-0.9-2-1.7-0.1-0.1-0.2-0.2-0.2-0.3 0.3 0 0.6-0.1 1.1-0.1 1.6-0.1 3.2 0 3.9 0.3 0.4 0.2 1.3 0.9 2 1.7 0 0.1 0.1 0.2 0.2 0.3z"/><path d="m8.6 17.7c1.5-0.1 2.7-0.3 2.7-0.3 0.2 0 0.4-0.2 0.6-0.4 0.1-0.2 0.2-0.4 0.1-0.6 0-0.1-0.1-0.2-0.1-0.3 0 0-0.5-0.8-1.2-1.6-0.8-0.9-1.6-1.8-2.6-2.2-1.3-0.6-3.2-0.5-4.6-0.4-1.5 0.1-2.8 0.3-2.8 0.3-0.2 0-0.3 0.1-0.4 0.2-0.3 0.3-0.3 0.8-0.1 1.1 0 0 0.5 0.8 1.2 1.6 0.8 0.9 1.6 1.8 2.6 2.2 0.9 0.4 1.9 0.5 3 0.5 0.6 0 1.1-0.1 1.6-0.1zm-3.9-2c-0.4-0.2-1.3-0.9-2-1.7-0.1-0.1-0.2-0.2-0.2-0.3 0.3 0 0.6-0.1 1.1-0.1 1.6-0.1 3.2 0 3.9 0.3 0.4 0.2 1.3 0.9 2 1.7 0.1 0.1 0.2 0.2 0.2 0.3-0.3 0-0.6 0.1-1.1 0.1-1.7 0.1-3.3 0-3.9-0.3z"/><path d="m12.6 10.8c0.8 0.7 1.5 1.2 1.6 1.2 0.1 0.1 0.3 0.2 0.5 0.2 0.3 0 0.5-0.1 0.7-0.4 0.1-0.1 0.1-0.2 0.1-0.3 0 0 0.2-1.3 0.3-2.7 0.2-1.6 0.2-3.4-0.3-4.8-0.4-1-1.3-1.8-2.2-2.6-0.8-0.7-1.5-1.2-1.6-1.2-0.3-0.2-0.8-0.2-1.1 0.1-0.1 0.1-0.2 0.3-0.2 0.4 0 0-0.2 1.3-0.3 2.7-0.1 1.5-0.2 3.3 0.4 4.6 0.3 1.1 1.2 2 2.1 2.8zm-0.6-3.3c-0.3-0.7-0.4-2.2-0.3-3.9 0-0.6 0.1-0.9 0.1-1.1 0.2 0 0.2 0.1 0.4 0.2 0.8 0.7 1.5 1.5 1.7 2 0.3 0.7 0.4 2.2 0.3 3.9 0 0.6-0.1 0.9-0.1 1.1-0.1-0.1-0.2-0.1-0.3-0.2-0.9-0.8-1.6-1.6-1.8-2z"/><path d="m19.5 17.7c0.8 0.7 1.5 1.2 1.6 1.2 0.1 0.1 0.3 0.2 0.5 0.2 0.3 0 0.5-0.1 0.7-0.4 0.1-0.1 0.1-0.2 0.1-0.3 0 0 0.2-1.3 0.3-2.7 0.1-1.5 0.2-3.3-0.4-4.6-0.4-1-1.3-1.8-2.2-2.6-0.8-0.7-1.5-1.2-1.6-1.2-0.3-0.2-0.8-0.2-1.1 0.1-0.1 0.1-0.2 0.3-0.2 0.4 0 0-0.2 1.3-0.3 2.7-0.1 1.5-0.2 3.3 0.4 4.6 0.5 0.9 1.3 1.8 2.2 2.6zm-0.6-3.3c-0.3-0.7-0.4-2.2-0.3-3.9 0-0.6 0.1-0.9 0.1-1.1 0.1 0.1 0.2 0.1 0.3 0.2 0.8 0.7 1.5 1.5 1.7 2 0.3 0.7 0.4 2.2 0.3 3.9 0 0.6-0.1 0.9-0.1 1.1-0.1-0.1-0.2-0.1-0.3-0.2-0.8-0.8-1.5-1.6-1.7-2z"/><path d="m29.3 17.8c-0.4-1-1.3-1.8-2.2-2.6-0.8-0.7-1.5-1.2-1.6-1.2-0.3-0.2-0.8-0.2-1.1 0.1-0.1 0.1-0.2 0.3-0.2 0.4 0 0-0.2 1.3-0.3 2.7-0.1 1.5-0.2 3.3 0.4 4.6 0.4 1 1.3 1.8 2.2 2.6 0.8 0.7 1.5 1.2 1.6 1.2 0.1 0.1 0.3 0.2 0.5 0.2h0.2c0.2 0 0.4-0.2 0.6-0.4 0.1-0.1 0.1-0.2 0.1-0.3 0 0 0.2-1.3 0.3-2.7 0-1.4 0.1-3.2-0.5-4.6zm-1.3 4.6c0 0.6-0.1 0.9-0.1 1.1-0.1-0.1-0.2-0.1-0.3-0.2-0.8-0.7-1.5-1.5-1.7-2-0.3-0.7-0.4-2.2-0.3-3.9 0-0.6 0.1-0.9 0.1-1.1 0.1 0.1 0.2 0.1 0.3 0.2 0.8 0.7 1.5 1.5 1.7 2 0.3 0.7 0.4 2.2 0.3 3.9z"/><path d="m5.3 8.8c1.3 0.6 2.5 1.1 2.6 1.1h0.3c0.1 0 0.3 0 0.4-0.1 0.2-0.1 0.4-0.3 0.4-0.5v-0.3s-0.1-0.9-0.3-2c-0.2-1.2-0.5-2.4-1.2-3.2-0.8-1.2-2.5-2-3.8-2.7-1.3-0.6-2.5-1-2.5-1.1-0.4-0.1-0.7 0-1 0.3-0.1 0.2-0.2 0.4-0.2 0.6 0 0 0.1 0.9 0.3 2 0.2 1.2 0.5 2.4 1.2 3.2 0.9 1.2 2.5 2 3.8 2.7zm-3.4-6.6c0.3 0.1 0.6 0.2 1.1 0.5 1.5 0.7 2.8 1.6 3.2 2.2 0.3 0.3 0.6 1.3 0.8 2.4 0 0.2 0 0.3 0.1 0.4-0.3-0.1-0.5-0.2-1.1-0.5-1.5-0.7-2.7-1.6-3.2-2.1-0.3-0.4-0.6-1.4-0.8-2.5 0-0.2-0.1-0.3-0.1-0.4z"/></svg>