<svg clip-rule="evenodd" fill-rule="evenodd" stroke-linejoin="round" stroke-miterlimit="1.4142" version="1.1" viewBox="0 0 16 16" xml:space="preserve" xmlns="http://www.w3.org/2000/svg"><path d="m8.593 2.173l0.834 0.93 0.513-0.449 0.128-0.128 0.096-0.064 0.064-0.064c0.065-0.064 0.129-0.097 0.193-0.161 0.288-0.192 0.641-0.32 0.994-0.32h0.673c0.193 0 0.353 0.032 0.513 0.064 0.321 0.096 0.641 0.288 0.898 0.577l0.481 0.545 0.224 0.257 0.193 0.192c0.16 0.192 0.256 0.641 0.32 1.058 0.032 0.225 0.032 0.417 0.032 0.641v1.347c0 0.16-0.064 0.353-0.128 0.513-0.128 0.353-0.352 0.706-0.609 1.058-0.128 0.161-0.289 0.321-0.417 0.481-0.128 0.161-0.32 0.289-0.481 0.449l-2.116 1.86-2.116 1.892-0.866 0.769-0.417-0.385-4.232-3.719-0.513-0.481-0.289-0.224-0.224-0.225c-0.289-0.321-0.577-0.673-0.77-1.026-0.192-0.353-0.32-0.705-0.32-1.058v-1.379c0-0.417 0.064-0.866 0.192-1.218 0.064-0.193 0.128-0.321 0.192-0.417l0.449-0.513 0.449-0.513c0.096-0.096 0.257-0.225 0.417-0.321s0.321-0.16 0.481-0.192c0.096 0 0.192-0.032 0.256-0.032h0.93c0.193 0.032 0.353 0.064 0.513 0.128 0.161 0.064 0.321 0.16 0.481 0.256 0.064 0.065 0.128 0.097 0.193 0.161l0.256 0.256 1.924 2.052 0.385 0.417 1.731 0.032-0.801-0.897-0.385-0.417-1.924-2.052-0.257-0.257c-0.128-0.128-0.224-0.224-0.352-0.288-0.257-0.193-0.513-0.321-0.77-0.417-0.256-0.097-0.545-0.161-0.833-0.193-0.321-0.032-0.513 0-0.77 0h-0.192-0.225c-0.16 0-0.288 0.032-0.449 0.064-0.288 0.065-0.577 0.193-0.833 0.321-0.225 0.16-0.449 0.321-0.674 0.545l-0.481 0.513-0.481 0.577c-0.224 0.257-0.352 0.545-0.416 0.834-0.161 0.545-0.225 1.058-0.225 1.571v1.443c0.032 0.609 0.225 1.154 0.481 1.635 0.257 0.481 0.577 0.866 0.93 1.251 0.096 0.096 0.16 0.192 0.288 0.288l0.225 0.225 0.545 0.481 4.265 3.751 0.641 0.577 0.545 0.481 0.064 0.065c0 0.032 0.032 0 0.032 0l0.032-0.033 0.128-0.128 0.257-0.224 1.25-1.09 2.117-1.86 2.116-1.86c0.16-0.16 0.353-0.288 0.545-0.513 0.16-0.192 0.353-0.385 0.513-0.577 0.321-0.417 0.609-0.866 0.802-1.379 0.096-0.256 0.16-0.545 0.192-0.833v-0.225-0.192-0.353-0.705c0-0.257-0.032-0.513-0.064-0.77-0.032-0.256-0.064-0.513-0.16-0.802-0.065-0.256-0.193-0.545-0.385-0.833-0.032-0.064-0.096-0.128-0.161-0.193l-0.128-0.128-0.224-0.256-0.449-0.674c-0.385-0.417-0.898-0.769-1.475-0.93-0.257-0.064-0.577-0.096-0.866-0.096h-0.353-0.384c-0.577 0.032-1.155 0.225-1.636 0.545-0.128 0.097-0.256 0.193-0.352 0.289l-0.064 0.064s-0.032 0.032-0.065 0.032l-0.128 0.128-0.513 0.449z" fill-rule="nonzero"/></svg>
