<svg enable-background="new 0 0 43.8 37.4" version="1.1" viewBox="0 0 43.8 37.4" xml:space="preserve" xmlns="http://www.w3.org/2000/svg"><polygon points="4.8 37.4 8.2 37.4 8.2 17.4 4.8 20.5"/><polygon points="34.8 37.4 38.1 37.4 38.1 20.5 34.8 17.4"/><path d="m43.8 19.7v-4.2l-19.6-14.2s-1.2-1.3-2.7-1.3-3 1.5-3 1.5l-18.5 14.1v4.1l21.5-15.6 22.3 15.6z"/><path d="m21.5 29.9s-6-6.3-6.6-7.2c-0.4-0.7-0.3-2.2 0.1-2.7 0.3-0.3 1.4-1.1 2.4-0.7 0.9 0.4 3.9 3.8 3.9 3.8l0.1-4.5s-1.6-1.7-2.7-2.2c-0.3-0.2-0.6-0.6-3.3-0.3-2 0.4-2.8 1.6-2.8 1.6s-1 1-1.2 2.8 0 2.7 0.3 3.3c0.7 1.9 4 4.9 4 4.9l3.3 3.3s0.9 1.2 2.5 1.2c1.5 0 2.4-1.1 2.4-1.1s6.4-6.2 7-7.8c0.8-1.6 0.5-4.2 0.3-4.7-0.3-1.2-1-1.9-1.2-2.1-0.7-0.8-1.7-1.2-2.3-1.4-1.8-0.3-3.8-0.3-3.8-0.3v3.3h2.4c0.7 0 1.1 0.4 1.3 0.6 0.6 0.6 0.7 2.8 0 3.5-0.2 0.4-6.1 6.7-6.1 6.7z"/></svg>
