<svg viewBox="0 0 16 16" xmlns="http://www.w3.org/2000/svg" fill-rule="evenodd" clip-rule="evenodd" stroke-linejoin="round" stroke-miterlimit="1.414"><path d="M8 1.5c2.117 0 2.366 0 3.188.05.772.024 1.195.174 1.47.273.373.15.622.324.92.598.275.275.45.55.6.923.098.274.248.697.272 1.47.05.846.05 1.095.05 3.187 0 2.092 0 2.366-.05 3.188-.024.772-.174 1.195-.273 1.47-.15.373-.324.622-.598.92a2.57 2.57 0 0 1-.923.6c-.274.098-.697.248-1.47.272-.846.05-1.095.05-3.187.05-2.092 0-2.366 0-3.188-.05-.772-.024-1.195-.174-1.47-.273-.373-.15-.622-.324-.92-.598a2.57 2.57 0 0 1-.6-.923c-.098-.274-.248-.697-.272-1.47C1.5 10.342 1.5 10.093 1.5 8c0-2.092 0-2.366.05-3.188.05-.797.174-1.195.273-1.494.15-.374.324-.623.598-.922.275-.25.55-.423.898-.573.274-.1.697-.25 1.47-.273C5.633 1.525 5.882 1.5 8 1.5M8 .08c-2.142 0-2.416 0-3.263.05-.846.025-1.42.174-1.917.373-.523.2-.972.474-1.42.897a4.154 4.154 0 0 0-.897 1.42C.303 3.318.18 3.89.13 4.737.08 5.584.08 5.857.08 8c0 2.142 0 2.416.05 3.263.05.846.174 1.42.373 1.917.2.523.474.972.922 1.395.448.448.872.722 1.395.922.498.2 1.07.323 1.917.373.847.05 1.12.05 3.263.05 2.142 0 2.416 0 3.263-.05.846-.05 1.42-.174 1.917-.373.523-.2.972-.474 1.395-.922.448-.448.722-.872.922-1.395.2-.498.323-1.07.373-1.917.05-.847.05-1.12.05-3.263 0-2.142 0-2.416-.05-3.263-.05-.846-.174-1.42-.373-1.917a3.604 3.604 0 0 0-.922-1.395c-.448-.448-.872-.722-1.395-.922-.498-.2-1.07-.323-1.917-.373C10.416.08 10.143.08 8 .08z" fill-rule="nonzero"/><path d="M8 3.94C5.76 3.94 3.94 5.76 3.94 8c0 2.24 1.82 4.06 4.06 4.06 2.24 0 4.06-1.82 4.06-4.06 0-2.24-1.82-4.06-4.06-4.06zm0 6.7c-1.47 0-2.64-1.17-2.64-2.64 0-1.47 1.17-2.64 2.64-2.64 1.47 0 2.64 1.17 2.64 2.64A2.64 2.64 0 0 1 8 10.64z" fill-rule="nonzero"/><circle cx="12.234" cy="3.766" r=".946"/></svg>