<svg xmlns="http://www.w3.org/2000/svg" viewBox="0 0 260 260"><circle fill="currentColor" cx="130.2" cy="130" r="128.3"/><path d="M192.7 215.3H67.3c-14.6 0-26.5-11.9-26.5-26.5V177c0-7.1 2.8-13.7 7.7-18.7l.2-.2 23.9-22.5c5-4.9 11.6-7.7 18.6-7.7h4.9c3.8 0 7.6 1.3 10.6 3.7l3.6 2.8c11.4 9 27.8 8.7 39-.6l2.3-1.9c3.1-2.6 7-4 11-4h5.7c7 0 13.8 2.8 18.7 7.6l24.6 22.7c5.1 5.1 8 11.9 8 18.7v11.8c0 14.8-12 26.6-26.9 26.6zM59.2 169.1c-2.1 2.1-3.3 5-3.3 8v11.8c0 6.3 5.1 11.4 11.4 11.4h125.4c6.4 0 11.8-5.2 11.8-11.4v-11.8c0-2.8-1.3-5.7-3.4-7.9l-24.6-22.7c-2.1-2.1-5.1-3.3-8.2-3.3h-5.7c-.5 0-1 .2-1.3.5l-2.3 1.9c-16.6 13.8-40.9 14.2-57.9.9l-3.6-2.8c-.4-.3-.8-.4-1.3-.4h-4.9c-3 0-5.9 1.2-8 3.3l-.2.2-23.9 22.3zM172.8 55.4c-2.3-5.6-5.7-10.7-9.9-14.9-4.2-4.3-9.3-7.7-14.9-10S136.4 27 130.4 27s-12 1.2-17.6 3.5-10.6 5.7-14.9 10c-4.2 4.3-7.6 9.4-9.9 14.9C85.7 61 84.5 67 84.5 73s1.2 12 3.5 17.6 5.7 10.7 9.9 14.9c4.2 4.3 9.3 7.7 14.9 10s11.6 3.5 17.6 3.5 12-1.2 17.6-3.5 10.6-5.7 14.9-10c4.2-4.3 7.6-9.4 9.9-14.9 2.3-5.6 3.5-11.6 3.5-17.6s-1.2-12-3.5-17.6zm-20.6 39.5c-5.7 5.8-13.7 9.1-21.8 9.1s-16.1-3.3-21.8-9.1-9-13.8-9-21.9c0-8.1 3.3-16.1 9-21.9s13.7-9.1 21.8-9.1 16.1 3.3 21.8 9.1c5.7 5.8 9 13.8 9 21.9s-3.2 16.1-9 21.9z"/></svg>
