<svg xmlns="http://www.w3.org/2000/svg" width="16" height="16" viewBox="0 0 16 16"><path d="M14.717 3.64V2.387s.064 0 .192.032c.127.032.32.064.544.224s.417.417.513.802c0 .032.032.096.032.128v.64c0 .258-.097.514-.226.706-.032.064-.096.096-.128.16l-.128.128c-.064.032-.096.096-.16.128-.224.192-.48.417-.738.61-.513.448-1.122.96-1.764 1.506s-1.347 1.154-2.084 1.764l-1.154.962c-.192.16-.385.32-.577.513-.127.13-.288.258-.448.354-.064.032-.096.096-.16.128l-.32.128-.097.032c-.032 0-.064-.032-.064-.032l-.32-.128c-.096-.064-.192-.16-.32-.257l-.354-.32c-.192-.16-.417-.354-.61-.514-.416-.352-.833-.704-1.282-1.057-.866-.705-1.73-1.443-2.597-2.18-.45-.353-.866-.737-1.283-1.09-.224-.16-.45-.353-.64-.545C.478 5.176.35 5.08.285 4.952.19 4.856.126 4.728.062 4.6c-.032-.13-.064-.258-.064-.386v-.737c.032-.256.16-.513.353-.705s.45-.32.706-.353c.096-.033.192-.033.224-.033h13.467v1.25H1.28c-.032 0 0 0 0 0v.546s-.032 0 .032.032c.224.192.417.353.64.545.45.353.867.737 1.316 1.09C4.87 7.23 6.506 8.575 8.013 9.858c1.475-1.25 2.854-2.405 4.008-3.4.642-.544 1.25-1.057 1.797-1.506.256-.224.513-.45.738-.64.064-.065.128-.097.16-.13l.032.033c0-.224 0-.417-.032-.577.032 0 .032 0 0 0z"/><path d="M16 6.525l-1.25 1.218v4.585H1.28V7.775L.032 6.59v1.217L0 10.725v1.796c.032.13.064.225.096.354.096.225.257.417.48.545.193.127.482.19.674.19h13.53c.193 0 .386-.063.546-.16.32-.19.577-.544.64-.93.033-.223 0-.255 0-.384v-5.61H16z"/></svg>