<svg enable-background="new 0 0 37 39" version="1.1" viewBox="0 0 37 39" xml:space="preserve" xmlns="http://www.w3.org/2000/svg"><path d="m31.5 39h-26.1c-3 0-5.4-2.4-5.4-5.4v-2.5c0-1.4 0.6-2.8 1.6-3.8l5-4.7c1-1 2.4-1.6 3.8-1.6h1c0.8 0 1.5 0.3 2.2 0.7l0.7 0.6c2.4 1.9 5.8 1.8 8.2-0.1l0.5-0.4c0.6-0.5 1.4-0.8 2.2-0.8h1.2c1.4 0 2.9 0.6 3.9 1.6l5 4.6c1.1 1.1 1.7 2.5 1.7 3.9v2.5c0 3-2.5 5.4-5.5 5.4zm-21.1-15c-0.6 0-1.3 0.3-1.7 0.7l-5 4.7c-0.4 0.4-0.7 1-0.7 1.7v2.5c0 1.3 1.1 2.4 2.4 2.4h26.1c1.4 0 2.5-1.1 2.5-2.4v-2.5c0-0.6-0.3-1.2-0.8-1.7l-5-4.6c-0.5-0.5-1.1-0.8-1.8-0.8h-1.2c-0.1 0-0.2 0-0.3 0.1l-0.5 0.4c-3.4 2.8-8.4 2.9-11.9 0.2l-0.7-0.6c-0.1-0.1-0.3-0.1-0.4-0.1h-1z"/><path d="m18.5 19c-5.2 0-9.5-4.3-9.5-9.5s4.3-9.5 9.5-9.5c5.3 0 9.5 4.3 9.5 9.5s-4.2 9.5-9.5 9.5zm0-16c-3.6 0-6.5 2.9-6.5 6.5s3 6.5 6.5 6.5c3.6 0 6.5-2.9 6.5-6.5s-2.9-6.5-6.5-6.5z"/></svg>