<svg viewBox="0 0 16 16" xmlns="http://www.w3.org/2000/svg" fill-rule="evenodd" clip-rule="evenodd" stroke-linejoin="round" stroke-miterlimit="1.414"><path d="M2.682 14.142l.154.28.06.107a.91.91 0 0 0 .294.336.995.995 0 0 0 .56.15h8.666a.91.91 0 0 0 .7-.482l.34-.56.335-.56.11-.18a.888.888 0 0 0 .107-.315 1.36 1.36 0 0 0 .014-.17V2.12a2.847 2.847 0 0 0-.02-.423.835.835 0 0 0-.153-.353A.815.815 0 0 0 13.18 1H4.293a.917.917 0 0 0-.652.227c-.364.28-.26 1.002-.26 1.12v8.174h-.46a.92.92 0 0 0-.9.672.94.94 0 0 0-.04.248v1.24c0 .17.04.336.12.485.047.095.092.17.14.252m.86-.655v-1.12h5.393l1.047-1.12H4.5V2.12h8.4v10.597l-.052.098-.138.227-.5.84h-1.74l-.93-1.18v-1.12L8.42 12.63v.132c.003.15.04.295.112.425.044.072.095.14.15.202l.088.108.303.384H3.66" fill-rule="nonzero"/><path d="M5.62 3.24h6.16v1.12H5.62zM5.62 5.48h6.16V6.6H5.62zM5.62 7.72h6.16v1.12H5.62zM10.38 9.96h1.4v1.12h-1.4z"/></svg>