<svg enable-background="new 0 0 50 50" version="1.1" viewBox="43 10 50 40" xml:space="preserve" xmlns="http://www.w3.org/2000/svg"><path d="m54.7 19.6c0.5-1.8 1.9-2.7 4-2.7 2.7 0 3.7 1.4 3.7 2.8 0 1.3-0.8 1.9-1.2 2.3-0.5 0.4-1.1 0.8-1.7 1.2-0.4 0.3-0.5 0.6-0.5 0.8h-1.9c0-0.7 0.1-1.1 0.6-1.7 0.4-0.4 0.8-0.6 1.3-0.9 0.3-0.2 1-0.7 1-1.4 0-0.3-0.1-1.3-1.4-1.3-1.2 0-1.8 0.9-1.8 1.7l-2.1-0.8zm2.2 5.3h2.3v2.5h-2.3v-2.5z"/><path d="m77.1 29.4l-0.7 3.8h-1l-0.7-3.7v-3.1h2.4v3zm-2.3 7.4v-2.5h2.4v2.5h-2.4z"/><path d="m85.3 21.8h-14.2v-6.5c0-1.7-1.4-3.1-3.2-3.1h-18.6c-1.8 0-3.2 1.4-3.2 3.1v13.7c0 1.7 1.4 3.1 3.2 3.1h2.7v5.9l6.1-5.9h5.4v6.5c0 1.7 1.4 3.1 3.1 3.1h9.8l6.2 5.9v-5.9h2.7c1.7 0 3.1-1.4 3.1-3.1v-13.8c0-1.7-1.4-3-3.1-3zm-21.8 8.1h-6.3l-3 2.8v-2.8h-5c-0.4 0-0.8-0.4-0.8-0.8v-13.9c0-0.4 0.4-0.8 0.8-0.8h18.7c0.4 0 0.8 0.4 0.8 0.8v13.8c0 0.4-0.4 0.8-0.8 0.8h-3.3s-1.1 0-1.1 0.1zm22.6 8.7c0 0.4-0.4 0.8-0.8 0.8h-5v2.8l-3-2.8h-10.7c-0.4 0-0.8-0.4-0.8-0.8v-6.5h2.1c1.7 0 3.1-1.4 3.1-3.1v-5h14.3c0.4 0 0.8 0.4 0.8 0.8v13.8z"/></svg>