<?xml version="1.0" encoding="utf-8"?>
<!-- Generator: Adobe Illustrator 21.1.0, SVG Export Plug-In . SVG Version: 6.00 Build 0)  -->
<svg version="1.1" id="Layer_1" xmlns="http://www.w3.org/2000/svg" xmlns:xlink="http://www.w3.org/1999/xlink" x="0px" y="0px"
	 viewBox="0 0 364 261" style="enable-background:new 0 0 364 261;" xml:space="preserve">
<g>
	<circle fill="currentColor" cx="169.3" cy="128.9" r="128.3"/>
	<g>
		<path d="M306.4,252.5c-1,0-2-0.3-2.8-1c-17.8-14.3-19.6-24.1-20.7-30.6c-0.5-2.9-0.8-3.9-1.7-4.8
			c-3.1-3-10-3.1-18.7-3.3c-4.1-0.1-8.8-0.2-13.8-0.6c-0.9-0.1-1.7-0.1-2.4-0.1c-3.2,0-4.4,0.7-4.5,0.9c-0.2,0.3,0,1.2,0.2,1.7
			c0.3,0.6,0.5,1.3,0.5,2.1c0,2.5-2,4.5-4.5,4.5c-0.2,0-0.4,0-0.6,0c-9.3-1.2-16.3-1.7-21.6-1.7c-9.1,0-11.5,1.6-15.2,3.9
			c-2.6,1.7-5.9,3.8-11.7,5.7c-4,1.3-6.5,3.2-7.9,6c-2.2,4.5-0.5,10-0.1,11c0.2,0.6,0.4,1.2,0.4,1.8c0,2.5-2,4.5-4.5,4.5
			c-0.1,0-0.1,0-0.2,0c-15.8-0.7-20.6-11.5-25.2-21.9c-1.5-3.5-3.1-7-5.2-10.5c-1.7-2.8-3.1-3.8-3.8-3.8c-1.7,0-4.5,3.3-5.7,5.5
			c-0.6,1.1-1.6,1.9-2.7,2.2c-1.2,0.3-2.4,0.2-3.5-0.4l-0.4-0.2c-6.2-3.5-6.7-4.5-13.1-16.1l-1.1-2c-2.4-4.4-5.9-6.5-10.5-6.5
			c-3.3,0-6,1.1-6,1.1c-0.9,0.4-2,0.5-3,0.2c-41.6-11.3-72.5-32.6-86.9-60c-9.2-17.5-11.1-36.3-5.2-52.8c11.8-33.5,14-58.3,14-58.5
			c0.1-1.5,1-2.9,2.4-3.6c1.4-0.7,3-0.7,4.3,0.1l5.5,3.1l0-0.4c-0.1-1.5,0.5-3,1.7-3.9c1.2-0.9,2.8-1.2,4.2-0.7
			c57.5,19.4,127.8,20.9,147.9,20.9c3.4,0,5.3,0,5.3,0c0.9,0,1.8,0.2,2.5,0.7c5,3.2,20.5,5.5,29.1,6.2c1.3,0.1,2.6,0.8,3.3,1.9
			c2.2,3.2,0.4,6.7-1.9,9.4c1.2-0.3,2.4-0.6,3.6-0.8c3.8-0.9,7.4-1.8,10.5-1.8c6.6,0,8.8,4,9.5,6.3c1,3.3,0.6,8.1-0.5,15.1
			c0.1-0.4,0.3-0.7,0.4-1.1c2.8-6.4,8.1-9.8,15.3-9.8c4.1,0,7.6,1.6,10.2,4.7c5.5,6.5,5.7,18.6,5.2,26.3
			c9.9-4.2,12.1-14.4,12.1-14.5c0.4-2,2.1-3.4,4.1-3.6c11.9-0.9,14.6-13,14.7-13.5c0.4-1.8,1.8-3.2,3.6-3.5
			c14.5-2.8,23.4-9.5,23.4-13c0-15.4,8.1-19.5,12.9-19.5c2.4,0,4.6,0.9,6.1,2.5c1.5,1.6,2.3,3.7,2.2,5.9c-0.2,7.6,2.5,10.6,4.5,12.8
			c1.4,1.5,3.1,3.4,2.9,6.2c-0.1,1.8-1.1,3.5-2.9,4.9c-14.2,11.4-8.9,21.1-8.1,22.3c0.9,1.2,1,2.8,0.5,4.2c-0.6,1.4-1.8,2.4-3.3,2.7
			c-6.7,1.4-13.8,7.3-18.1,14.9c-3.9,6.9-5,14.3-2.9,20.3c5.4,15.9-1,32.6-18.6,48.1c-12,10.6-15.9,16.9-3.8,33.3
			c16.3,21.8,4.4,38.1,3.9,38.8c-0.7,1-1.8,1.6-3,1.8C306.8,252.5,306.6,252.5,306.4,252.5z M142.2,207.2c4.5,0,8.4,2.8,11.6,8.3
			c2.3,3.9,4.1,7.9,5.6,11.4c3.7,8.3,6.2,13.3,11.5,15.4c-0.2-3.3,0-7.2,1.9-11c2.4-5.1,6.9-8.7,13.3-10.8c4.7-1.5,7.1-3.1,9.6-4.7
			c4.3-2.8,8.3-5.4,20.1-5.4c4.5,0,10.1,0.4,17,1.1c0.2-1.1,0.6-2.3,1.3-3.4c2.1-3.4,6.2-5.1,12.1-5.1c1,0,2.1,0.1,3.2,0.2
			c4.7,0.4,9,0.5,13.2,0.6c10.7,0.3,19.1,0.4,24.7,5.8c3.1,3,3.8,6.4,4.4,9.7c0.9,4.9,2.1,11.4,13.1,21.4c1.4-4.8,1.7-13.2-6-23.5
			c-7.7-10.3-10.5-18.7-8.7-26.4c1.6-7,6.4-12.5,13.7-19c10.2-9,21.3-23.1,16-38.5c-2.9-8.6-1.6-18.4,3.6-27.7
			c4.6-8.1,11.6-14.5,19-17.6c-0.5-1.7-0.8-3.7-0.8-5.9c0-5.5,2-13.6,11.5-21.8c-2.5-2.8-6.3-7.7-6.3-17.4
			c-1.3,0.8-3.2,3.6-3.2,10.3c0,10.2-14,17.9-27.9,21.2c-2.2,6.3-7.9,15.1-18.8,17.3c-2.6,7.4-10,18.1-24.7,20
			c-1.4,0.2-2.8-0.3-3.8-1.3c-1-1-1.4-2.5-1.2-3.9c1.2-7.5,1.6-21-2.4-25.8c-0.9-1.1-1.9-1.5-3.4-1.5c-6.8,0-8.4,4.5-9.2,17.4
			c-0.3,3.7-0.5,7.2-1.3,10c-1.6,5.7-5.2,7.2-7.8,7.5c-2.6,0.3-5-0.7-6.7-2.6c-3.8-4.5-2.7-13.2-0.4-27c0.9-5.7,2.2-13.4,1.6-15.8
			c-0.2,0-0.5-0.1-1-0.1c-2.1,0-5.2,0.7-8.4,1.5c-4.2,1-8.9,2.1-13.3,2.1c-2.2,0-4.2-0.3-6-0.8c-1.6-0.5-2.8-1.9-3.1-3.5
			c-0.3-1.7,0.4-3.4,1.8-4.4c1.9-1.4,3.8-3,5.4-4.4c-7.4-1-18.4-2.8-24.5-6c-0.9,0-2.4,0-4.3,0c-19.8,0-86.8-1.4-144.3-19.2l0.2,2.1
			c0.1,1.7-0.6,3.3-2,4.2c-1.4,0.9-3.2,1-4.7,0.1l-7.1-4c-1.4,9.9-5.1,29.6-13.7,53.9c-5,14.1-3.3,30.3,4.7,45.6
			c13.1,24.9,41.4,44.4,79.9,55.1c1.7-0.6,4.6-1.3,8-1.3c7.8,0,14.3,3.9,18.3,11.1l1.1,2c3,5.3,4.6,8.3,5.8,9.8
			c0.3,0.4,0.5,0.6,0.9,0.9C133.6,210.6,137.4,207.2,142.2,207.2z"/>
	</g>
	<g>
		<path  d="M117.3,140.5L99,126.1c-0.4-0.4-1-0.4-1.4,0l-18.2,14.4c-0.6,0.6-0.2,1.2,0.7,1.2h5.5v20.6
			c0,1.2,0.6,1.4,1.7,1.4h22c1.2,0,3.2-0.2,3.2-1.4v-20.6h4C117.5,141.7,117.9,141.1,117.3,140.5z M105.6,151.5
			c-0.6,0.8-1.2,1.7-1.9,2.5c-0.9,1.3-1.8,2.5-2.8,3.8c-0.2,0.3-0.4,0.6-0.6,0.8c-0.7,1-2.4,1-3.1,0c-0.7-0.9-1.4-1.9-2-2.8
			c-0.9-1.3-1.9-2.6-2.8-3.9c-0.9-1.2-2-2.3-2-3.7c0-2.3,2.2-4.2,4.8-4.2c1.3,0,2.5,1.7,3.3,2.4c0.9-0.7,2-2.4,3.3-2.4
			c3,0,5.1,2.4,4.9,4.8C106.8,149.9,106.2,150.7,105.6,151.5z"/>
	</g>
	<g>
		<path  d="M86.3,67.5L68.1,53.2c-0.4-0.4-1-0.4-1.4,0L48.5,67.5c-0.6,0.6-0.2,1.2,0.7,1.2h5.4v20.8
			c0,1.2,0.6,1.2,1.8,1.2h22c1.2,0,3.2,0,3.2-1.2V68.7h4C86.5,68.7,87,68.2,86.3,67.5z M74.6,78.6c-0.6,0.8-1.2,1.7-1.9,2.5
			c-0.9,1.3-1.8,2.5-2.8,3.8c-0.2,0.3-0.4,0.6-0.6,0.8c-0.7,1-2.4,1-3.1,0c-0.7-0.9-1.4-1.9-2-2.8c-0.9-1.3-1.9-2.6-2.8-3.9
			c-0.9-1.2-2-2.3-2-3.7c0-2.3,2.2-4.2,4.8-4.2c1.3,0,2.5,1.7,3.3,2.4c0.9-0.7,2-2.4,3.3-2.4c3,0,5.1,2.4,4.9,4.8
			C75.8,77,75.2,77.8,74.6,78.6z"/>
	</g>
	<g>
		<path  d="M213.3,97.6L195,83.3c-0.4-0.4-1-0.3-1.4,0l-18.2,14.3c-0.6,0.6-0.2,1.1,0.7,1.1h5.5v21c0,1.2,0.5,1,1.7,1h22
			c1.2,0,3.2,0.2,3.2-1v-21h4C213.4,98.7,213.9,98.3,213.3,97.6z M201.6,108.8c-0.6,0.8-1.2,1.7-1.9,2.5c-0.9,1.3-1.8,2.5-2.8,3.8
			c-0.2,0.3-0.4,0.6-0.6,0.8c-0.7,1-2.4,1-3.1,0c-0.7-0.9-1.4-1.9-2-2.8c-0.9-1.3-1.9-2.6-2.8-3.9c-0.9-1.2-2-2.3-2-3.7
			c0-2.3,2.2-4.2,4.8-4.2c1.3,0,2.5,1.7,3.3,2.4c0.9-0.7,2-2.4,3.3-2.4c3,0,5.1,2.4,4.9,4.8C202.7,107.2,202.2,108,201.6,108.8z"/>
	</g>
	<g>
		<path  d="M284.4,151.6l-18.2-14.3c-0.4-0.4-1-0.3-1.4,0l-18.2,14.3c-0.6,0.6-0.2,1.1,0.7,1.1h5.4v20.9
			c0,1.2,0.6,1.1,1.8,1.1h22c1.2,0,3.2,0.1,3.2-1.1v-20.9h4.1C284.5,152.7,285,152.2,284.4,151.6z M272.7,162.8
			c-0.6,0.8-1.2,1.7-1.9,2.5c-0.9,1.3-1.8,2.5-2.8,3.8c-0.2,0.3-0.4,0.6-0.6,0.8c-0.7,1-2.4,1-3.1,0c-0.7-0.9-1.4-1.9-2-2.8
			c-0.9-1.3-1.9-2.6-2.8-3.9c-0.9-1.2-2-2.3-2-3.7c0-2.3,2.2-4.2,4.8-4.2c1.3,0,2.5,1.7,3.3,2.4c0.9-0.7,2-2.4,3.3-2.4
			c3,0,5.1,2.4,4.9,4.8C273.8,161.1,273.3,162,272.7,162.8z"/>
	</g>
	<g>
		<path  d="M195.1,179.6l-18.2-14.3c-0.4-0.4-1-0.3-1.4,0l-18.2,14.3c-0.6,0.6-0.2,1.1,0.7,1.1h5.7v20.9
			c0,1.2,0.3,1.1,1.5,1.1h22c1.2,0,3.5,0.1,3.5-1.1v-20.9h3.8C195.2,180.7,195.7,180.2,195.1,179.6z M183.4,190.8
			c-0.6,0.8-1.2,1.7-1.9,2.5c-0.9,1.3-1.8,2.5-2.8,3.8c-0.2,0.3-0.4,0.6-0.6,0.8c-0.7,1-2.4,1-3.1,0c-0.7-0.9-1.4-1.9-2-2.8
			c-0.9-1.3-1.9-2.6-2.8-3.9c-0.9-1.2-2-2.3-2-3.7c0-2.3,2.2-4.2,4.8-4.2c1.3,0,2.5,1.7,3.3,2.4c0.9-0.7,2-2.4,3.3-2.4
			c3,0,5.1,2.4,4.9,4.8C184.5,189.1,184,190,183.4,190.8z"/>
	</g>
</g>
</svg>
