<svg id="resettle" data-name="Layer 1" xmlns="http://www.w3.org/2000/svg" viewBox="0 0 362.54 256.52"><circle fill="currentColor" cx="168.56" cy="128.26" r="128.26"></circle><path d="M322.8,320.75a4.48,4.48,0,0,1-2.82-1c-17.78-14.33-19.57-24.09-20.75-30.55-0.52-2.86-.79-3.95-1.71-4.82-3.12-3-10-3.13-18.75-3.33-4.13-.1-8.83-0.21-13.81-0.65-0.88-.08-1.7-0.11-2.44-0.11-3.24,0-4.35.72-4.47,0.91a3.15,3.15,0,0,0,.2,1.71,4.51,4.51,0,0,1-3.95,6.6,4.11,4.11,0,0,1-.59,0,184,184,0,0,0-21.6-1.71c-9.11,0-11.54,1.57-15.21,3.94a44.74,44.74,0,0,1-11.68,5.67c-4,1.27-6.54,3.25-7.88,6-2.17,4.5-.52,10-0.15,11a4.42,4.42,0,0,1,.38,1.81,4.5,4.5,0,0,1-4.5,4.49h-0.22C177,320,172.25,309.29,167.6,298.91a108.38,108.38,0,0,0-5.2-10.55c-1.65-2.83-3.08-3.83-3.8-3.83-1.66,0-4.46,3.28-5.66,5.54a4.5,4.5,0,0,1-6.22,1.79l-0.41-.24c-6.15-3.54-6.68-4.49-13.13-16.09l-1.09-2c-2.43-4.37-5.85-6.49-10.47-6.49a17.13,17.13,0,0,0-6,1.14,4.5,4.5,0,0,1-3,.23c-41.65-11.26-72.51-32.56-86.91-60C16.5,191,14.64,172.21,20.48,155.68c11.81-33.47,14-58.3,14-58.55a4.5,4.5,0,0,1,6.69-3.55l5.48,3.08,0-.37a4.5,4.5,0,0,1,5.91-4.68C110.1,111,180.33,112.48,200.48,112.48c3.4,0,5.3,0,5.32,0a4.51,4.51,0,0,1,2.53.7c5,3.16,20.46,5.46,29.08,6.18a4.5,4.5,0,0,1,3.33,1.92c2.24,3.24.42,6.68-1.86,9.37,1.2-.27,2.42-0.56,3.61-0.84A48.17,48.17,0,0,1,253,128c6.64,0,8.83,4,9.54,6.34,1,3.33.56,8.09-.54,15.08,0.14-.37.29-0.73,0.44-1.09,2.8-6.4,8.1-9.78,15.34-9.78A13,13,0,0,1,288,143.24c5.53,6.51,5.73,18.64,5.19,26.32,9.9-4.21,12.11-14.37,12.14-14.49a4.5,4.5,0,0,1,4.05-3.58c11.91-.92,14.56-13,14.67-13.49a4.52,4.52,0,0,1,3.55-3.52c14.5-2.83,23.41-9.48,23.41-13,0-15.39,8.08-19.5,12.85-19.5a8.45,8.45,0,0,1,6.13,2.51,8,8,0,0,1,2.25,5.9c-0.23,7.56,2.53,10.59,4.53,12.8,1.38,1.52,3.09,3.4,2.86,6.2a6.93,6.93,0,0,1-2.88,4.88c-14.22,11.37-8.88,21.13-8.14,22.35a4.39,4.39,0,0,1,.46,4.16,4.48,4.48,0,0,1-3.28,2.7c-6.7,1.44-13.8,7.29-18.11,14.89-3.91,6.91-5,14.33-2.92,20.34,5.45,15.93-1,32.57-18.56,48.14-12,10.59-15.93,16.94-3.75,33.28,16.29,21.85,4.45,38.15,3.94,38.83a4.52,4.52,0,0,1-3,1.77ZM158.59,275.52c4.47,0,8.36,2.79,11.57,8.3a116.54,116.54,0,0,1,5.64,11.42c3.7,8.27,6.18,13.28,11.51,15.39a21.86,21.86,0,0,1,1.85-11c2.42-5.1,6.89-8.73,13.27-10.79a35.86,35.86,0,0,0,9.56-4.66c4.28-2.77,8.33-5.38,20.09-5.38a163.31,163.31,0,0,1,17,1.12,9.43,9.43,0,0,1,1.3-3.45c2.13-3.41,6.2-5.14,12.1-5.14,1,0,2.1.05,3.24,0.15,4.69,0.41,9,.51,13.23.61,10.67,0.25,19.1.45,24.74,5.81,3.13,3,3.76,6.41,4.37,9.73C309,292.47,310.16,299,321.23,309c1.37-4.84,1.72-13.18-6-23.5s-10.45-18.69-8.74-26.44c1.56-7,6.41-12.48,13.74-19,10.21-9,21.28-23.06,16-38.49-2.93-8.56-1.65-18.4,3.61-27.69,4.57-8.08,11.56-14.49,19-17.64a22.87,22.87,0,0,1-.79-5.92c0-5.49,2-13.61,11.45-21.8-2.5-2.8-6.3-7.73-6.29-17.39C362,112,360,114.81,360,121.46c0,10.21-14,17.94-27.94,21.24-2.17,6.34-7.88,15.11-18.82,17.31a30.27,30.27,0,0,1-24.65,20,4.5,4.5,0,0,1-5-5.19c1.21-7.45,1.62-21-2.42-25.79a4,4,0,0,0-3.36-1.51c-6.85,0-8.37,4.55-9.24,17.37a51.18,51.18,0,0,1-1.3,10c-1.62,5.69-5.16,7.21-7.84,7.5a7.53,7.53,0,0,1-6.67-2.58c-3.83-4.52-2.71-13.21-.41-27,0.94-5.66,2.23-13.37,1.64-15.8a4.9,4.9,0,0,0-1-.08,43.51,43.51,0,0,0-8.43,1.52c-4.18,1-8.9,2.13-13.34,2.13a19.59,19.59,0,0,1-6-.85,4.5,4.5,0,0,1-1.33-7.91c1.9-1.41,3.8-3,5.36-4.41-7.41-1-18.42-2.82-24.53-6-0.94,0-2.38,0-4.27,0-19.75,0-86.78-1.43-144.28-19.22l0.19,2.11a4.5,4.5,0,0,1-6.69,4.33l-7.08-4A291.62,291.62,0,0,1,29,158.67c-5,14.14-3.32,30.34,4.71,45.61,13.06,24.87,41.41,44.4,79.91,55.09a26.25,26.25,0,0,1,8-1.3c7.83,0,14.34,3.95,18.33,11.12l1.09,2c3,5.33,4.59,8.27,5.79,9.77a7.41,7.41,0,0,0,.85.91C150,278.91,153.82,275.52,158.59,275.52Z" transform="translate(-17.14 -68.88)"></path><path d="M133.7,208.76l-18.24-14.41a1,1,0,0,0-1.39,0l-18.24,14.4c-0.62.62-.18,1.25,0.7,1.25H102v20.65c0,1.19.56,1.35,1.75,1.35h22c1.19,0,3.23-.16,3.23-1.35V210h4C133.88,210,134.32,209.38,133.7,208.76Zm-11.71,11c-0.64.82-1.25,1.65-1.86,2.49l-2.76,3.79-0.61.84a2,2,0,0,1-3.08,0l-2-2.78c-0.94-1.29-1.87-2.59-2.83-3.87s-2-2.26-2-3.73c0-2.31,2.16-4.18,4.83-4.18,1.3,0,2.48,1.72,3.35,2.44,0.87-.73,2-2.44,3.35-2.44a4.63,4.63,0,0,1,4.87,4.84A5.09,5.09,0,0,1,122,219.78Z" transform="translate(-17.14 -68.88)"></path><path d="M102.74,135.82L84.5,121.44a1,1,0,0,0-1.39,0L64.87,135.81c-0.62.62-.18,1.19,0.7,1.19H71v20.77c0,1.19.6,1.23,1.79,1.23h22C96,159,98,159,98,157.77V137h4C102.92,137,103.37,136.44,102.74,135.82ZM91,146.9c-0.64.82-1.25,1.65-1.86,2.49l-2.76,3.79L85.8,154a2,2,0,0,1-3.08,0l-2-2.78c-0.94-1.29-1.87-2.59-2.83-3.87s-2-2.26-2-3.73c0-2.31,2.16-4.18,4.83-4.18,1.3,0,2.48,1.72,3.35,2.44,0.87-.73,2-2.44,3.35-2.44a4.63,4.63,0,0,1,4.87,4.84A5.09,5.09,0,0,1,91,146.9Z" transform="translate(-17.14 -68.88)"></path><path d="M229.68,165.92L211.44,151.6a1,1,0,0,0-1.39,0L191.8,165.9c-0.62.62-.18,1.1,0.7,1.1H198v21c0,1.19.54,1,1.73,1h22c1.19,0,3.25.17,3.25-1V167h4C229.86,167,230.3,166.55,229.68,165.92ZM218,177.11c-0.64.82-1.25,1.65-1.86,2.49l-2.76,3.79-0.61.84a2,2,0,0,1-3.08,0l-2-2.78c-0.94-1.29-1.87-2.59-2.83-3.87s-2-2.26-2-3.73c0-2.31,2.16-4.18,4.83-4.18,1.3,0,2.48,1.72,3.35,2.44,0.87-.73,2-2.44,3.35-2.44a4.63,4.63,0,0,1,4.87,4.84A5.09,5.09,0,0,1,218,177.11Z" transform="translate(-17.14 -68.88)"></path><path d="M300.77,219.89l-18.24-14.34a1,1,0,0,0-1.39,0l-18.24,14.28c-0.62.62-.18,1.13,0.7,1.13H269v20.91c0,1.19.63,1.09,1.82,1.09h22c1.19,0,3.16.1,3.16-1.09V221h4.07C300.95,221,301.39,220.51,300.77,219.89ZM289.06,231c-0.64.82-1.25,1.65-1.86,2.49l-2.76,3.79-0.61.84a2,2,0,0,1-3.08,0l-2-2.78c-0.94-1.29-1.87-2.59-2.83-3.87s-2-2.26-2-3.73c0-2.31,2.16-4.18,4.83-4.18,1.3,0,2.48,1.72,3.35,2.44,0.87-.73,2-2.44,3.35-2.44a4.63,4.63,0,0,1,4.87,4.84A5.09,5.09,0,0,1,289.06,231Z" transform="translate(-17.14 -68.88)"></path><path d="M211.47,247.89l-18.24-14.34a1,1,0,0,0-1.39,0L173.6,247.87c-0.62.62-.18,1.13,0.7,1.13H180v20.92c0,1.19.33,1.08,1.52,1.08h22c1.19,0,3.45.11,3.45-1.08V249h3.77C211.65,249,212.1,248.52,211.47,247.89ZM199.77,259c-0.64.82-1.25,1.65-1.86,2.49l-2.76,3.79-0.61.84a2,2,0,0,1-3.08,0l-2-2.78c-0.94-1.29-1.87-2.59-2.83-3.87s-2-2.26-2-3.73c0-2.31,2.16-4.18,4.83-4.18,1.3,0,2.48,1.72,3.35,2.44,0.87-.73,2-2.44,3.35-2.44a4.63,4.63,0,0,1,4.87,4.84A5.09,5.09,0,0,1,199.77,259Z" transform="translate(-17.14 -68.88)"></path></svg>