<svg id="respond" data-name="Layer 2" xmlns="http://www.w3.org/2000/svg" viewBox="0 0 277.99 256.52"><circle fill="currentColor" cx="145.93" cy="128.26" r="128.26"></circle><path d="M120,258.69c-1.27-.3-10.34-3.46-12.29-4.39a27.7,27.7,0,0,1-5.42-3.77l-3.64-3.22L78,228.94a33.76,33.76,0,0,1-4.1-4.14,25.87,25.87,0,0,1-3.38-5.49,26.3,26.3,0,0,1,1.64-24.74l19.81-31.22,9.9-15.58,2.47-3.86c0.21-.31.41-0.63,0.62-1a30.7,30.7,0,0,1,2.45-3.42,23.87,23.87,0,0,1,16.55-8.76c0.08,0,.65,0,3.45,0,8.59,0,29.56.21,29.77,0.21l36.9-1,4.78,0.06a25.91,25.91,0,0,1,6.35,1,26.4,26.4,0,0,1,5.94,2.54,29.2,29.2,0,0,1,4.74,3.52L230,149c2.81,2.37,8.63,6,11.78,6.26,0.83,0.08,2.51.12,5.13,0.12s6,0,8.5-.07l3.47,0h0.41l0.36-.2a34.26,34.26,0,0,0,5.59-5l1.59-1.58,6.63-6.61a26.09,26.09,0,0,1,17.44-7.3h9.41l5,0a26.51,26.51,0,0,1,6.28,1.09,26,26,0,0,1,10.91,6.56l6.47,6.51a32,32,0,0,1,3.75,4.31A24.78,24.78,0,0,1,337,165l0.36,16.43A26.18,26.18,0,0,1,332,192.81c-0.6.74-1.58,1.77-2.05,2.23L325,200l-1.65,1.74-0.89,1.09-1.15,1.43c-0.47.42-1,.89-1.45,1.36a18.05,18.05,0,0,1-3.76,3.07l-0.38.2c-3.84,2-8.2,4.35-11.95,4.35h-6.44L282.62,196h18.87l0.12,0c1.53-.24,3.28-0.49,3.56-0.51a11.31,11.31,0,0,0,5-2.31l0.17-.12a10.55,10.55,0,0,0,1.09-.82l0.44-.39,0.88-.86,6.53-6.52a11.53,11.53,0,0,0,1.87-2.26,11,11,0,0,0,1.71-5.21l0-8.65a11.13,11.13,0,0,0-1.38-5.3,10.8,10.8,0,0,0-1.62-2.24l-3.06-3.07-4.91-4.91-0.12-.11a10.56,10.56,0,0,0-.93-0.8,11,11,0,0,0-5-2.17c-1.86-.17-6.5-0.18-7.88-0.18-3.57,0-6.71.06-8,.14a11.18,11.18,0,0,0-5.16,2.17,10.68,10.68,0,0,0-1,.89l-4.86,4.86L275.52,161a25.56,25.56,0,0,1-5.16,3.81A26,26,0,0,1,258,168.19h-18.6A26,26,0,0,1,227,165a24.89,24.89,0,0,1-2.74-1.71c-0.45-.32-0.87-0.63-1.29-1l-1-.77-3.53-2.86-13.74-11.25a10.15,10.15,0,0,0-5-1.65c-0.45-.05-21.83-0.32-63.69-0.81l-8.92,0a11.14,11.14,0,0,0-5.3,1.51,11,11,0,0,0-2.18,1.67c-0.33.33-.62,0.66-0.9,1l-0.29.37-0.7,1.09L88.13,197.26c-0.45.72-1,1.51-1.45,2.29a32.32,32.32,0,0,0-2.75,4.67,11.15,11.15,0,0,0,1,10.43,12.27,12.27,0,0,0,1.76,2.05l24.12,21.57,4.7,3.86,0.31,0.09c0.52,0.15,4.29,1.48,6.55,2.29l0.26,0.09h60.19c0.4,0,1.63,0,7.52-5.57l47.27-51.38,20.74-.36-34.53,37.26L211.32,238.1l-6.27,6.84-3.15,3.55a28.32,28.32,0,0,1-4.88,4.43c-3.54,2.31-15.79,5.73-17.32,5.78H120Z" transform="translate(-59.41 -68.88)"></path><path d="M230.33,282.64a25.26,25.26,0,0,1-3,2.47c-2.14,1.4-13.69,6.06-15.3,6.48H59.41V275.92h153.4l0.36-.21c1.38-.79,6-3.4,6.79-4.07l0.07-.06,3.12-3.19,10.41-11.21,20.75-.35L237,275.55l-4,4.29Z" transform="translate(-59.41 -68.88)"></path><polygon points="94 45.68 94 30.01 0 30.01 0 17.48 225.04 17.48 211.14 30.01 109.66 30.01 109.66 45.68 94 45.68"></polygon><polygon points="87.73 149.08 87.73 133.41 73.63 133.41 73.63 119.31 87.73 119.31 87.73 106.78 103.4 106.78 103.4 119.31 117.5 119.31 117.5 133.41 103.4 133.41 103.4 149.08 87.73 149.08"></polygon></svg>