<svg id="serve" data-name="Layer 4" xmlns="http://www.w3.org/2000/svg" viewBox="0 0 290.63 260.11"><circle fill="currentColor" cx="143.97" cy="128.26" r="128.26"></circle><path d="M162.46,280.2l15.68-20.37h40.23l1.76,0,0.54,0a5.86,5.86,0,0,0,1.36-.16l0.18,0A10.18,10.18,0,0,0,224,259l0.42-.16a11.3,11.3,0,0,0,4.37-3.14,11.46,11.46,0,0,0,2.09-3.83c0.24-.58.52-1.28,0.89-2.14l3.27-8.54,28.29-67.14,1.16-5a5.49,5.49,0,0,0-.1-2.84l-0.78-2.54a5.68,5.68,0,0,0-1.14-2c-0.49-.57-0.93-1.19-1.34-1.78a31.23,31.23,0,0,1-3-5.33,32.17,32.17,0,0,1-2.69-11.88,31.94,31.94,0,0,1,29.61-33c0.84-.07,1.64-0.1,2.45-0.1a32.12,32.12,0,0,1,31.91,28.28,35,35,0,0,1-5.32,22.85,29.79,29.79,0,0,1-8.4,8.84,30.92,30.92,0,0,1-11,4V157.78c2.24-.7,4.77-2.86,6.46-5.66a19.06,19.06,0,0,0,2.54-12.38,16.3,16.3,0,0,0-16.26-14.4c-0.41,0-.83,0-1.25,0a16.24,16.24,0,0,0-15.06,16.85,16.17,16.17,0,0,0,1.36,6A15.54,15.54,0,0,0,274.1,151a7.18,7.18,0,0,0,1.08,1.3l0.4,0.42,1,1.15,0.06,0.05a12.63,12.63,0,0,1,3.88,6.94,13.1,13.1,0,0,1,.16,3.09c0,0.39,0,.78,0,1.17v10a9.32,9.32,0,0,1-.65,3.85l-33.39,77.18c-0.24.53-.44,1-0.64,1.5-0.37.9-.76,1.82-1.5,3.33a29,29,0,0,1-3.66,5.47,28.2,28.2,0,0,1-10.54,7.7l-0.38.15a25.28,25.28,0,0,1-5.67,1.71,9.55,9.55,0,0,0-4.39,2.14l-0.08.06-2.07,2H162.46Z" transform="translate(-53.09 -67.09)"></path><path d="M308.59,215.18a27.33,27.33,0,0,1-9.9-1.87l-4.76-2-14.46-6.13,6.14-14.46L302.86,198l1.41,0.59c0.32,0.13.64,0.24,1,.34a11.59,11.59,0,0,0,2,.42,11.51,11.51,0,0,0,4-.21l0.9-.25,31.62-10.34-9.45,19.62-15.88,5.19a33.2,33.2,0,0,1-5.61,1.45A27.11,27.11,0,0,1,308.59,215.18Z" transform="translate(-53.09 -67.09)"></path><path d="M202.18,220.79l8.16-20.39a28.09,28.09,0,0,1,2.15-4.19A27.43,27.43,0,0,1,227,184.8L240,180.75l13.91-4.35-9.71,19.49-11.06,3.46-1.58.52a12.15,12.15,0,0,0-1.34.61,11.47,11.47,0,0,0-4.29,4,11.76,11.76,0,0,0-.69,1.22l-0.07.15-0.74,1.81-7.6,19Z" transform="translate(-53.09 -67.09)"></path><path d="M286.94,327.2V268.6a2.48,2.48,0,0,1,.6-1.45,5,5,0,0,0,1.63-2.69c0.21-2.23-1.24-4.52-2.12-5.69a11.54,11.54,0,0,0-4-3.39l-6.91-3.07-13.7-6,6.32-14.38,20.08,8.81,1.37,0.66a27.22,27.22,0,0,1,14.6,20.3,12.93,12.93,0,0,1,.08,1.4,11.88,11.88,0,0,0,.13,1.76,14.62,14.62,0,0,0,.43,1.67,9.33,9.33,0,0,1,.31,1.22V327.2h-18.8Z" transform="translate(-53.09 -67.09)"></path><path d="M53.09,218.8L61,208.48H81.41l0.89,0h0.27a3,3,0,0,0,.69-0.08l0.09,0a5.16,5.16,0,0,0,.93-0.29l0.21-.08a5.72,5.72,0,0,0,2.21-1.59,5.81,5.81,0,0,0,1.06-1.94c0.12-.3.26-0.65,0.45-1.09l1.66-4.32,14.33-34,0.59-2.53a2.78,2.78,0,0,0,0-1.44l-0.39-1.29a2.88,2.88,0,0,0-.58-1c-0.25-.29-0.47-0.6-0.68-0.9a15.82,15.82,0,0,1-1.51-2.7,16.29,16.29,0,0,1-1.36-6,16.17,16.17,0,0,1,15-16.7c0.42,0,.83,0,1.24,0a16.27,16.27,0,0,1,16.16,14.32,17.72,17.72,0,0,1-2.69,11.57,15.09,15.09,0,0,1-4.25,4.48,15.66,15.66,0,0,1-5.56,2v-8a6.56,6.56,0,0,0,3.27-2.87,9.66,9.66,0,0,0,1.28-6.27,8.26,8.26,0,0,0-8.23-7.29l-0.63,0a8.23,8.23,0,0,0-7.63,8.54,8.19,8.19,0,0,0,.69,3,7.87,7.87,0,0,0,.77,1.38,3.63,3.63,0,0,0,.55.66l0.2,0.21,0.52,0.58,0,0a6.39,6.39,0,0,1,2,3.52,6.64,6.64,0,0,1,.08,1.56c0,0.2,0,.4,0,0.59v5.06a4.72,4.72,0,0,1-.33,1.95L95.73,206.59c-0.12.27-.22,0.51-0.33,0.76-0.19.45-.38,0.92-0.76,1.69a14.68,14.68,0,0,1-1.85,2.77,14.28,14.28,0,0,1-5.34,3.9l-0.19.08a12.8,12.8,0,0,1-2.87.87,4.84,4.84,0,0,0-2.22,1.08l0,0-1,1h-28Z" transform="translate(-53.09 -67.09)"></path><path d="M127.1,185.87a13.84,13.84,0,0,1-5-.95l-2.41-1-7.32-3.11,3.11-7.33,8.74,3.71,0.72,0.3,0.49,0.17a5.87,5.87,0,0,0,1,.21,5.83,5.83,0,0,0,2-.11l0.46-.13,16-5.24-4.79,9.94-8,2.63a16.81,16.81,0,0,1-2.84.74A13.73,13.73,0,0,1,127.1,185.87Z" transform="translate(-53.09 -67.09)"></path><path d="M73.21,188.71l4.13-10.33a14.23,14.23,0,0,1,1.09-2.12,13.89,13.89,0,0,1,7.36-5.77l6.55-2.05,7-2.2-4.92,9.87-5.6,1.75-0.8.26a6.15,6.15,0,0,0-.68.31,5.81,5.81,0,0,0-2.17,2,6,6,0,0,0-.35.62l0,0.08-0.38.92-3.85,9.62Z" transform="translate(-53.09 -67.09)"></path><path d="M116.14,242.6V212.92a1.25,1.25,0,0,1,.3-0.73,2.54,2.54,0,0,0,.83-1.36,4.6,4.6,0,0,0-1.07-2.88,5.84,5.84,0,0,0-2-1.72l-3.5-1.55-6.94-3,3.2-7.29,10.17,4.46,0.69,0.33a13.79,13.79,0,0,1,7.4,10.28,6.55,6.55,0,0,1,0,.71,6,6,0,0,0,.07.89,7.4,7.4,0,0,0,.22.85,4.72,4.72,0,0,1,.16.62V242.6h-9.52Z" transform="translate(-53.09 -67.09)"></path><path d="M152.33,143.83l5.25-6.82h13.47l0.59,0h0.18a2,2,0,0,0,.46-0.05h0.06a3.41,3.41,0,0,0,.61-0.19l0.14-.05a3.78,3.78,0,0,0,1.46-1.05,3.84,3.84,0,0,0,.7-1.28l0.3-.72,1.1-2.86,9.48-22.49,0.39-1.67a1.84,1.84,0,0,0,0-1l-0.26-.85a1.9,1.9,0,0,0-.38-0.68c-0.16-.19-0.31-0.4-0.45-0.6a10.46,10.46,0,0,1-1-1.78,10.77,10.77,0,0,1-.9-4,10.7,10.7,0,0,1,9.92-11c0.28,0,.55,0,0.82,0a10.76,10.76,0,0,1,10.69,9.47,11.72,11.72,0,0,1-1.78,7.65,10,10,0,0,1-2.81,3,10.36,10.36,0,0,1-3.68,1.34v-5.29a4.34,4.34,0,0,0,2.16-1.9,6.39,6.39,0,0,0,.85-4.15A5.46,5.46,0,0,0,194.22,92l-0.42,0a5.44,5.44,0,0,0-5,5.64,5.42,5.42,0,0,0,.46,2,5.21,5.21,0,0,0,.51.92,2.4,2.4,0,0,0,.36.43l0.13,0.14,0.35,0.39,0,0a4.23,4.23,0,0,1,1.3,2.33,4.39,4.39,0,0,1,.05,1c0,0.13,0,.26,0,0.39v3.35a3.12,3.12,0,0,1-.22,1.29l-11.18,25.85-0.21.5c-0.13.3-.25,0.61-0.5,1.11a9.71,9.71,0,0,1-1.22,1.83,9.45,9.45,0,0,1-3.53,2.58l-0.13,0a8.47,8.47,0,0,1-1.9.57,3.2,3.2,0,0,0-1.47.72l0,0-0.69.69H152.33Z" transform="translate(-53.09 -67.09)"></path><path d="M201.27,122.05a9.15,9.15,0,0,1-3.32-.63l-1.6-.67-4.84-2.05,2.06-4.84,5.78,2.45,0.47,0.2,0.32,0.12a3.88,3.88,0,0,0,.66.14l0.47,0a3.87,3.87,0,0,0,.87-0.1l0.3-.08L213,113.14l-3.17,6.57-5.32,1.74a11.12,11.12,0,0,1-1.88.49A9.08,9.08,0,0,1,201.27,122.05Z" transform="translate(-53.09 -67.09)"></path><path d="M165.63,123.93l2.73-6.83a9.41,9.41,0,0,1,.72-1.4,9.19,9.19,0,0,1,4.87-3.82l4.33-1.36,4.66-1.46-3.25,6.53L176,116.75l-0.53.17a4.07,4.07,0,0,0-.45.2,3.84,3.84,0,0,0-1.44,1.33,3.94,3.94,0,0,0-.23.41l0,0-0.25.61-2.55,6.36Z" transform="translate(-53.09 -67.09)"></path><path d="M194,159.57V139.94a0.83,0.83,0,0,1,.2-0.48,1.68,1.68,0,0,0,.55-0.9,3,3,0,0,0-.71-1.91,3.87,3.87,0,0,0-1.35-1.13l-2.31-1-4.59-2,2.12-4.82,6.72,3,0.46,0.22a9.12,9.12,0,0,1,4.89,6.8,4.33,4.33,0,0,1,0,.47,4,4,0,0,0,0,.59,4.9,4.9,0,0,0,.14.56,3.12,3.12,0,0,1,.1.41v19.92H194Z" transform="translate(-53.09 -67.09)"></path></svg>