<?xml version="1.0" encoding="utf-8"?>
<!-- Generator: Adobe Illustrator 21.1.0, SVG Export Plug-In . SVG Version: 6.00 Build 0)  -->
<svg version="1.1" id="Layer_4" xmlns="http://www.w3.org/2000/svg" xmlns:xlink="http://www.w3.org/1999/xlink" x="0px" y="0px"
	 viewBox="0 0 364 261" style="enable-background:new 0 0 364 261;" xml:space="preserve">
<g>
	<circle fill="currentColor" cx="169.3" cy="128.9" r="128.3"/>
	<g>
		<g>
			<g>
				<g>
					<path  d="M134.7,213.7l15.7-20.4h40.2l1.8,0c0.2,0,0.4,0,0.5,0c0.6,0,1-0.1,1.4-0.2l0.2,0c0.7-0.2,1.3-0.4,1.8-0.6
						l0.4-0.2c1.7-0.7,3.1-1.7,4.4-3.1c1-1.1,1.4-2,2.1-3.8c0.2-0.6,0.5-1.3,0.9-2.1l3.3-8.5l28.3-67.1l1.2-5
						c0.2-0.9,0.2-1.9-0.1-2.8l-0.8-2.5c-0.2-0.7-0.6-1.4-1.1-2c-0.5-0.6-0.9-1.2-1.3-1.8c-1.1-1.6-2.2-3.4-3-5.3
						c-1.6-3.7-2.6-7.9-2.7-11.9c-0.3-8.1,2.7-16.5,8.1-22.4c5.3-6,13.5-10,21.5-10.5c0.8-0.1,1.6-0.1,2.4-0.1
						c7.3,0,14.8,2.7,20.4,7.3c6.4,5.2,10.6,12.9,11.5,21c0.9,8.2-1,16.1-5.3,22.9c-2.6,3.9-5.2,6.7-8.4,8.8c-2.9,1.9-7.8,3.5-11,4
						V91.3c2.2-0.7,4.8-2.9,6.5-5.7c2.1-3.2,3-7.7,2.5-12.4c-0.5-4.1-2.7-8-5.8-10.7c-3-2.4-6.7-3.7-10.4-3.7c-0.4,0-0.8,0-1.2,0
						c-4,0.2-8,2.1-10.9,5.4c-2.9,3.2-4.4,7.4-4.1,11.5c0.1,2,0.5,4,1.4,6c0.4,1,0.9,1.9,1.5,2.7c0.4,0.5,0.7,0.9,1.1,1.3l0.4,0.4
						l1,1.2l0.1,0.1c2,1.8,3.3,4.2,3.9,6.9c0.2,1,0.2,2,0.2,3.1c0,0.4,0,0.8,0,1.2v10c0,1.4-0.1,2.6-0.6,3.8l-33.4,77.2
						c-0.2,0.5-0.4,1-0.6,1.5c-0.4,0.9-0.8,1.8-1.5,3.3c-1.1,2.1-2.4,4-3.7,5.5c-3,3.5-6.8,6.2-10.5,7.7l-0.4,0.1
						c-1.9,0.7-3.7,1.4-5.7,1.7c-1.3,0.2-2.7,0.9-4.4,2.1l-0.1,0.1l-2.1,2H134.7z"/>
				</g>
				<g>
					<path  d="M280.8,148.7c-1,0-2-0.1-3-0.2c-2.4-0.3-4.7-0.8-6.9-1.7l-4.8-2l-14.5-6.1l6.1-14.5l17.3,7.3l1.4,0.6
						c0.3,0.1,0.6,0.2,1,0.3c0.6,0.2,1.3,0.3,2,0.4c0.5,0.1,0.9,0.1,1.4,0.1c0.9,0,1.8-0.1,2.6-0.3l0.9-0.2l31.6-10.3l-9.5,19.6
						l-15.9,5.2c-1.2,0.4-3.5,1.2-5.6,1.5C283.6,148.6,282.2,148.7,280.8,148.7z"/>
				</g>
				<g>
					<path  d="M174.4,154.3l8.2-20.4c0.6-1.4,1.3-2.8,2.1-4.2c3.3-5.3,8.6-9.5,14.5-11.4l12.9-4.1l13.9-4.3l-9.7,19.5
						l-11.1,3.5l-1.6,0.5c-0.5,0.2-0.9,0.4-1.3,0.6c-1.7,0.9-3.3,2.3-4.3,4c-0.2,0.4-0.5,0.8-0.7,1.2l-0.1,0.1l-0.7,1.8l-7.6,19
						L174.4,154.3z"/>
				</g>
				<g>
					<path  d="M259.2,260.7v-58.6c0-0.3,0.2-1.1,0.6-1.4c1.2-1.1,1.5-2.1,1.6-2.7c0.2-2.2-1.2-4.5-2.1-5.7
						c-1.1-1.5-2.5-2.6-4-3.4l-6.9-3.1l-13.7-6l6.3-14.4l20.1,8.8l1.4,0.7c3.7,1.8,7,4.6,9.5,8c2.7,3.6,4.4,7.8,5.1,12.3
						c0.1,0.5,0.1,1,0.1,1.4c0,0.6,0,1.1,0.1,1.8c0.1,0.5,0.3,1.1,0.4,1.7c0.1,0.4,0.3,1,0.3,1.2v59.5H259.2z"/>
				</g>
			</g>
		</g>
		<g>
			<g>
				<g>
					<path  d="M25.3,152.3l7.9-10.3h20.4l0.9,0c0.1,0,0.2,0,0.3,0c0.3,0,0.5,0,0.7-0.1l0.1,0c0.4-0.1,0.6-0.2,0.9-0.3
						l0.2-0.1c0.9-0.3,1.6-0.9,2.2-1.6c0.5-0.6,0.7-1,1.1-1.9c0.1-0.3,0.3-0.6,0.4-1.1l1.7-4.3l14.3-34L77,96c0.1-0.5,0.1-1,0-1.4
						l-0.4-1.3c-0.1-0.4-0.3-0.7-0.6-1c-0.2-0.3-0.5-0.6-0.7-0.9c-0.6-0.8-1.1-1.7-1.5-2.7c-0.8-1.9-1.3-4-1.4-6
						c-0.2-4.1,1.4-8.4,4.1-11.4c2.7-3.1,6.8-5.1,10.9-5.3c0.4,0,0.8,0,1.2,0c3.7,0,7.5,1.3,10.3,3.7c3.2,2.7,5.3,6.5,5.8,10.6
						c0.4,4.2-0.5,8.2-2.7,11.6c-1.3,2-2.7,3.4-4.3,4.5c-1.4,1-3.9,1.8-5.6,2v-8c1.1-0.4,2.4-1.5,3.3-2.9c1.1-1.6,1.5-3.9,1.3-6.3
						c-0.3-2.1-1.3-4.1-3-5.4c-1.5-1.2-3.4-1.9-5.3-1.9c-0.2,0-0.4,0-0.6,0C86,74,84,75,82.5,76.6c-1.5,1.6-2.2,3.8-2.1,5.8
						c0,1,0.3,2,0.7,3c0.2,0.5,0.5,1,0.8,1.4c0.2,0.3,0.3,0.5,0.5,0.7l0.2,0.2l0.5,0.6l0,0c1,0.9,1.7,2.1,2,3.5
						c0.1,0.5,0.1,1,0.1,1.6c0,0.2,0,0.4,0,0.6v5.1c0,0.7-0.1,1.3-0.3,1.9L68,140.1c-0.1,0.3-0.2,0.5-0.3,0.8
						c-0.2,0.5-0.4,0.9-0.8,1.7c-0.6,1.1-1.2,2-1.9,2.8c-1.5,1.8-3.4,3.1-5.3,3.9l-0.2,0.1c-1,0.4-1.9,0.7-2.9,0.9
						c-0.7,0.1-1.4,0.4-2.2,1.1l0,0l-1,1H25.3z"/>
				</g>
				<g>
					<path  d="M99.4,119.4c-0.5,0-1,0-1.5-0.1c-1.2-0.1-2.4-0.4-3.5-0.9l-2.4-1l-7.3-3.1l3.1-7.3l8.7,3.7l0.7,0.3
						c0.2,0.1,0.3,0.1,0.5,0.2c0.3,0.1,0.7,0.2,1,0.2c0.2,0,0.5,0,0.7,0c0.4,0,0.9-0.1,1.3-0.2l0.5-0.1l16-5.2l-4.8,9.9l-8,2.6
						c-0.6,0.2-1.8,0.6-2.8,0.7C100.8,119.3,100.1,119.4,99.4,119.4z"/>
				</g>
				<g>
					<path  d="M45.5,122.2l4.1-10.3c0.3-0.7,0.7-1.4,1.1-2.1c1.7-2.7,4.4-4.8,7.4-5.8l6.5-2.1l7-2.2l-4.9,9.9l-5.6,1.8
						l-0.8,0.3c-0.3,0.1-0.5,0.2-0.7,0.3c-0.9,0.5-1.7,1.2-2.2,2c-0.1,0.2-0.2,0.4-0.3,0.6l0,0.1l-0.4,0.9l-3.8,9.6L45.5,122.2z"/>
				</g>
				<g>
					<path  d="M88.4,176.1v-29.7c0-0.1,0.1-0.5,0.3-0.7c0.6-0.6,0.8-1,0.8-1.4c0.1-1.1-0.6-2.3-1.1-2.9
						c-0.6-0.7-1.3-1.3-2-1.7l-3.5-1.6l-6.9-3l3.2-7.3l10.2,4.5l0.7,0.3c1.9,0.9,3.5,2.3,4.8,4.1c1.3,1.8,2.2,4,2.6,6.2
						c0,0.2,0,0.5,0,0.7c0,0.3,0,0.6,0.1,0.9c0,0.3,0.1,0.6,0.2,0.8c0.1,0.2,0.2,0.5,0.2,0.6v30.1H88.4z"/>
				</g>
			</g>
		</g>
		<g>
			<g>
				<g>
					<path  d="M124.6,77.3l5.3-6.8h13.5l0.6,0c0.1,0,0.1,0,0.2,0c0.2,0,0.3,0,0.5-0.1l0.1,0c0.3-0.1,0.4-0.1,0.6-0.2
						l0.1-0.1c0.6-0.2,1.1-0.6,1.5-1.1c0.3-0.4,0.5-0.7,0.7-1.3c0.1-0.2,0.2-0.4,0.3-0.7l1.1-2.9l9.5-22.5l0.4-1.7
						c0.1-0.3,0.1-0.6,0-1l-0.3-0.9c-0.1-0.2-0.2-0.5-0.4-0.7c-0.2-0.2-0.3-0.4-0.5-0.6c-0.4-0.6-0.7-1.2-1-1.8
						c-0.6-1.3-0.9-2.6-0.9-4c-0.1-2.7,0.9-5.5,2.7-7.5c1.8-2,4.5-3.4,7.2-3.5c0.3,0,0.5,0,0.8,0c2.5,0,4.9,0.9,6.8,2.4
						c2.1,1.8,3.5,4.3,3.9,7c0.3,2.7-0.3,5.4-1.8,7.7c-0.9,1.3-1.8,2.3-2.8,3c-1,0.6-2.6,1.2-3.7,1.3v-5.3c0.8-0.2,1.6-1,2.2-1.9
						c0.7-1.1,1-2.6,0.8-4.1c-0.2-1.4-0.9-2.7-2-3.6c-1-0.8-2.2-1.2-3.5-1.2c-0.1,0-0.3,0-0.4,0c-1.3,0.1-2.7,0.7-3.7,1.8
						c-1,1.1-1.5,2.5-1.4,3.9c0,0.7,0.2,1.4,0.5,2c0.1,0.3,0.3,0.6,0.5,0.9c0.1,0.2,0.2,0.3,0.4,0.4l0.1,0.1l0.3,0.4l0,0
						c0.7,0.6,1.1,1.4,1.3,2.3c0.1,0.3,0.1,0.7,0.1,1c0,0.1,0,0.3,0,0.4v3.3c0,0.5,0,0.9-0.2,1.3l-11.2,25.8
						c-0.1,0.2-0.1,0.3-0.2,0.5c-0.1,0.3-0.3,0.6-0.5,1.1c-0.4,0.7-0.8,1.3-1.2,1.8c-1,1.2-2.3,2.1-3.5,2.6l-0.1,0
						c-0.6,0.2-1.2,0.5-1.9,0.6c-0.4,0.1-0.9,0.3-1.5,0.7l0,0l-0.7,0.7H124.6z"/>
				</g>
				<g>
					<path  d="M173.5,55.6c-0.3,0-0.7,0-1-0.1c-0.8-0.1-1.6-0.3-2.3-0.6l-1.6-0.7l-4.8-2.1l2.1-4.8l5.8,2.5l0.5,0.2
						c0.1,0,0.2,0.1,0.3,0.1c0.2,0.1,0.4,0.1,0.7,0.1c0.2,0,0.3,0,0.5,0c0.3,0,0.6,0,0.9-0.1l0.3-0.1l10.6-3.5l-3.2,6.6l-5.3,1.7
						c-0.4,0.1-1.2,0.4-1.9,0.5C174.5,55.5,174,55.6,173.5,55.6z"/>
				</g>
				<g>
					<path  d="M137.9,57.4l2.7-6.8c0.2-0.5,0.4-0.9,0.7-1.4c1.1-1.8,2.9-3.2,4.9-3.8l4.3-1.4l4.7-1.5l-3.3,6.5l-3.7,1.2
						l-0.5,0.2c-0.2,0.1-0.3,0.1-0.5,0.2c-0.6,0.3-1.1,0.8-1.4,1.3c-0.1,0.1-0.2,0.3-0.2,0.4l0,0l-0.2,0.6l-2.5,6.4L137.9,57.4z"/>
				</g>
				<g>
					<path  d="M166.3,93.1V73.5c0-0.1,0.1-0.4,0.2-0.5c0.4-0.4,0.5-0.7,0.5-0.9c0.1-0.7-0.4-1.5-0.7-1.9
						c-0.4-0.5-0.8-0.9-1.3-1.1l-2.3-1l-4.6-2l2.1-4.8l6.7,3l0.5,0.2c1.2,0.6,2.3,1.5,3.2,2.7c0.9,1.2,1.5,2.6,1.7,4.1
						c0,0.2,0,0.3,0,0.5c0,0.2,0,0.4,0,0.6c0,0.2,0.1,0.4,0.1,0.6c0,0.1,0.1,0.3,0.1,0.4v19.9H166.3z"/>
				</g>
			</g>
		</g>
	</g>
</g>
</svg>
