<svg viewBox="0 0 16 16" xmlns="http://www.w3.org/2000/svg" fill-rule="evenodd" clip-rule="evenodd" stroke-linejoin="round" stroke-miterlimit="1.414"><path d="M8.428 11.44l-.708-.67-.11-.078c-.106-.097-.32-.2-.558-.23h-.16a.49.49 0 0 0-.37.213l-.06.094a.773.773 0 0 1-.87.068l-.054-.103-.052-.068a.48.48 0 0 0-.378-.206h-.124a.892.892 0 0 0-.587.308l-.647.647a.88.88 0 0 0-.243.61v.33c0 .468.367.85.83.876h3.417c.41 0 1.015-.374 1.015-.89v-.31c-.017-.206-.147-.435-.34-.588l-.002-.002z" fill-rule="nonzero"/><path d="M6.523 8.03a1.31 1.31 0 0 0-1.782.853.788.788 0 0 0-.033.258v.214c0 .076.01.15.032.22.03.214.233.526.518.73a1.226 1.226 0 0 0 1.273.124c.438-.215.748-.668.763-1.195a1.342 1.342 0 0 0-.76-1.198l-.01-.004z" fill-rule="nonzero"/><path d="M12.923 4.95v.032a.04.04 0 0 0 0 .012v5.578l1.23 1.15v-6.82a1.212 1.212 0 0 0-.16-.54c-.133-.287-.465-.554-.864-.638a1.473 1.473 0 0 0-.27-.032H2.79a1.39 1.39 0 0 0-.282.036c-.345.057-.69.337-.852.713-.003-.014-.06.13-.088.284-.01.047-.023.146-.026.248v1.18h1.23v-1.23h10.103c.017 0 .036.012.05.028h-.002z" fill-rule="nonzero"/><path d="M12.308 7.385c0-.68-.55-1.23-1.23-1.23H1.23c-.68 0-1.23.55-1.23 1.23v6.154c0 .68.55 1.23 1.23 1.23h9.847c.68 0 1.23-.55 1.23-1.23V7.384zM1.23 13.538V7.384h9.847v6.154H1.23z" fill-rule="nonzero"/><path d="M14.77 2.49v.02c-.002.004-.002.008-.002.01a.04.04 0 0 0 0 .012V8.11L16 9.26V2.44a1.212 1.212 0 0 0-.16-.54c-.138-.29-.474-.558-.878-.638a1.475 1.475 0 0 0-.267-.032H4.635a1.39 1.39 0 0 0-.282.036c-.345.057-.69.337-.852.713-.002-.016-.058.128-.087.282a1.49 1.49 0 0 0-.026.248v1.18h1.23V2.46H14.72c.017 0 .036.012.05.028z" fill-rule="nonzero"/></svg>