<svg enable-background="new 0 0 34.8 39.9" version="1.1" viewBox="0 0 34.8 39.9" xml:space="preserve" xmlns="http://www.w3.org/2000/svg"><path d="m29.5 0.1c-0.6 0-1.3-0.1-2.2-0.1l-1.2 3.5c0.9 0.1 2.5 0.1 3.2 0.1s1.4 0.1 1.8 0.1v1.8 2.3c0 4-3.5 5.8-6.7 5.8s-6.7-1.8-6.7-5.8v-2.3-1.7c0.4-0.1 0.9-0.1 1.5-0.1s2.2-0.1 3-0.2l-1.1-3.5c-0.8 0.1-1.5 0.1-2 0.2-4.1 0.3-4.8 1-4.8 5.3v2.3c0 4.9 3.5 8.5 8.5 9.2v11.6c0 4.3-3.5 7.8-7.8 7.8s-7.8-3.5-7.8-7.8v-18.2c2.1-0.8 3.5-2.7 3.5-5 0-3-2.4-5.4-5.4-5.4s-5.3 2.4-5.3 5.4c0 2.4 1.6 4.4 3.7 5.1v18.2c0 6.2 5.1 11.3 11.3 11.3s11.3-5.1 11.3-11.3v-11.7c5-0.7 8.5-4.3 8.5-9.2v-2.3c-0.1-4.4-0.8-5.1-5.3-5.4zm-24.2 3.4c1 0 1.9 0.8 1.9 1.9s-0.8 1.8-1.9 1.8c-1 0-1.9-0.8-1.9-1.9s0.9-1.8 1.9-1.8z"/></svg>