<svg id="Layer_1" xmlns="http://www.w3.org/2000/svg" viewBox="0 0 44.6 45.9"><style>.st0{fill:none}</style><path class="st0" d="M9.6 10.7l-6 6c-1.5 1.5-2.3 3.5-2.3 5.5v8.5c0 2.1.8 4.1 2.3 5.5l6 6c1.5 1.5 3.5 2.3 5.5 2.3h8.5c2.1 0 4.1-.8 5.5-2.3l6-6c1.5-1.5 2.3-3.5 2.3-5.5v-8.5c0-2.1-.8-4.1-2.3-5.5l-6-6c-1.5-1.5-3.5-2.3-5.5-2.3h-8.5c-2 0-4 .8-5.5 2.3z"/><path d="M24 10.7c1.3 0 2.4.5 3.3 1.4l6.5 6.5c.9.9 1.4 2.1 1.4 3.3v9.2c0 1.3-.5 2.4-1.4 3.3l-6.5 6.5c-.9.9-2.1 1.4-3.3 1.4h-9.2c-1.2 0-2.4-.5-3.3-1.4L5 34.4c-.9-.9-1.4-2.1-1.4-3.3v-9.2c0-1.3.5-2.4 1.4-3.3l6.5-6.5c.9-.9 2.1-1.4 3.3-1.4H24m.2-3.6h-9.6c-2.1 0-4.1.8-5.5 2.3l-6.8 6.8C.8 17.6 0 19.6 0 21.7v9.6c0 2.1.8 4.1 2.3 5.5l6.8 6.8c1.5 1.5 3.4 2.3 5.5 2.3h9.6c2.1 0 4.1-.8 5.5-2.3l6.8-6.8c1.5-1.5 2.3-3.5 2.3-5.5v-9.6c0-2.1-.8-4.1-2.3-5.5l-6.8-6.8c-1.4-1.5-3.4-2.3-5.5-2.3z"/><g><path d="M21.1 24.4l8.7 8.6v2.4h-2.5l-8.7-8.7z"/></g><g><path d="M13.9.1h11.3v3H13.9z"/><path d="M17.8 1.6h3V7h-3zM40.8 31.5h-4.6v-3h4.6c.4 0 .8-.4.8-.8v-2.3c0-.4-.4-.8-.8-.8h-4.6v-3h4.6c2.1 0 3.8 1.7 3.8 3.8v2.3c0 2-1.7 3.8-3.8 3.8z"/></g></svg>