<svg xmlns="http://www.w3.org/2000/svg" width="16" height="16" viewBox="0 0 16 16"><path d="M16 3.033c-.6.267-1.233.433-1.9.5.7-.367 1.233-1.033 1.467-1.8-.633.367-1.333.633-2.1.8-.6-.633-1.433-1.033-2.4-1.033-1.8 0-3.3 1.467-3.3 3.3 0 .267.033.5.1.733C5.167 5.4 2.734 4.1 1.1 2.1.833 2.6.667 3.167.667 3.767.667 4.9 1.234 5.9 2.134 6.5 1.6 6.467 1.1 6.333.634 6.1v.033c0 1.6 1.133 2.933 2.633 3.233-.267.067-.567.1-.867.1-.2 0-.433-.033-.633-.067.433 1.3 1.633 2.266 3.067 2.266-1.133.867-2.533 1.4-4.067 1.4-.267 0-.533 0-.767-.033 1.467.933 3.167 1.467 5.033 1.467 6.033 0 9.333-5 9.333-9.333v-.433C15 4.267 15.566 3.7 16 3.034z"/></svg>