<svg id="work" data-name="Layer 3" xmlns="http://www.w3.org/2000/svg" viewBox="0 0 318.02 256.57"><circle fill="currentColor" cx="151.83" cy="128.26" r="128.26"></circle><path d="M149.45,325.43a34.13,34.13,0,0,1-8-.95l-76.77-19C50,301.78,39.4,288.8,39.4,274.57V130.13c0-9.16,5-18.53,13.4-25.08a33.78,33.78,0,0,1,20.46-6.75,33.15,33.15,0,0,1,8,1l63.82,16a18.82,18.82,0,0,0,9.14,0l89.91-22.51a30.57,30.57,0,0,1,13.34-.4l74.93,14.14c14.73,2.76,25,15.63,25,31.28V282.85c0,10.14-3.75,18.84-10.56,24.49a29.9,29.9,0,0,1-19.44,7.34h0a31.61,31.61,0,0,1-5.81-.55l-66.06-12.38a19.51,19.51,0,0,0-3.51-.32,19.17,19.17,0,0,0-4.6.56l-90.11,22.51A33,33,0,0,1,149.45,325.43ZM72.87,111.16a20.59,20.59,0,0,0-12.31,4c-3.22,2.51-8.63,7.8-8.63,14.95V274.57A19.08,19.08,0,0,0,66.59,293l74.64,18.58V128L76.48,111.66A12.71,12.71,0,0,0,72.87,111.16ZM153.76,128V311.54l89.3-22.15V105.86ZM255.59,289.07l67,12.41a19.5,19.5,0,0,0,3.64.34,20.52,20.52,0,0,0,12.65-4.4c1.81-1.5,6.05-6,6.05-14.58V137.73a19.12,19.12,0,0,0-15.76-18.64l-73.54-13.73V289.07Z" transform="translate(-39.4 -68.86)"></path><path d="M104.51,168.87A14,14,0,0,0,95,158.82a14.32,14.32,0,0,0-4.9-.59,14,14,0,0,0-11.64,7.52,13.72,13.72,0,0,0-1.46,8c0.53,3.76,3,8.68,7.13,14.43,1.09,1.5,2.45,3.24,3.71,4.77,0.92,1.1,2.21,2.58,2.59,3a0.61,0.61,0,0,0,.29.22,0.54,0.54,0,0,0,.5-0.08c0.22-.16,1.86-2,3.07-3.51,5.58-6.77,9.21-13,10.27-17.52a11.53,11.53,0,0,0,.35-2.94A12.92,12.92,0,0,0,104.51,168.87Zm-6.91,3.06a6.8,6.8,0,0,1-7,5.65,6.69,6.69,0,0,1-2.05-.42,9.5,9.5,0,0,1-1.22-.6,6.8,6.8,0,0,1-1-10.75,6.78,6.78,0,0,1,3.94-1.8,10.48,10.48,0,0,1,1.58,0,6.84,6.84,0,0,1,5.73,5.1,6,6,0,0,1,.19,1.66A5.6,5.6,0,0,1,97.6,171.93Z" transform="translate(-39.4 -68.86)"></path><path d="M120.18,215.87a14,14,0,0,0-9.51-10.06,14.32,14.32,0,0,0-4.9-.59,14,14,0,0,0-11.64,7.52,13.72,13.72,0,0,0-1.46,8c0.53,3.76,3,8.68,7.13,14.43,1.09,1.5,2.45,3.24,3.71,4.77,0.92,1.1,2.21,2.58,2.59,3a0.61,0.61,0,0,0,.29.22,0.54,0.54,0,0,0,.5-0.08c0.22-.16,1.86-2,3.07-3.51,5.58-6.77,9.21-13,10.27-17.52a11.53,11.53,0,0,0,.35-2.94A12.92,12.92,0,0,0,120.18,215.87Zm-6.91,3.06a6.8,6.8,0,0,1-7,5.65,6.69,6.69,0,0,1-2.05-.42,9.5,9.5,0,0,1-1.22-.6,6.8,6.8,0,0,1-1-10.75,6.78,6.78,0,0,1,3.94-1.8,10.48,10.48,0,0,1,1.58,0,6.84,6.84,0,0,1,5.73,5.1,6,6,0,0,1,.19,1.66A5.6,5.6,0,0,1,113.27,218.93Z" transform="translate(-39.4 -68.86)"></path><path d="M222.79,180.62a14,14,0,0,0-9.51-10.06,14.32,14.32,0,0,0-4.9-.59,14,14,0,0,0-11.64,7.52,13.72,13.72,0,0,0-1.46,8c0.53,3.76,3,8.68,7.13,14.43,1.09,1.5,2.45,3.24,3.71,4.77,0.92,1.1,2.21,2.58,2.59,3a0.61,0.61,0,0,0,.29.22,0.54,0.54,0,0,0,.5-0.08c0.22-.16,1.86-2,3.07-3.51,5.58-6.77,9.21-13,10.27-17.52a11.53,11.53,0,0,0,.35-2.94A12.92,12.92,0,0,0,222.79,180.62Zm-6.91,3.06a6.8,6.8,0,0,1-7,5.65,6.69,6.69,0,0,1-2.05-.42,9.5,9.5,0,0,1-1.22-.6,6.8,6.8,0,0,1-1-10.75,6.78,6.78,0,0,1,3.94-1.8,10.48,10.48,0,0,1,1.58,0,6.84,6.84,0,0,1,5.73,5.1,6,6,0,0,1,.19,1.66A5.6,5.6,0,0,1,215.88,183.68Z" transform="translate(-39.4 -68.86)"></path><path d="M227.49,246.42A14,14,0,0,0,218,236.36a14.32,14.32,0,0,0-4.9-.59,14,14,0,0,0-11.64,7.52,13.72,13.72,0,0,0-1.46,8c0.53,3.76,3,8.68,7.13,14.43,1.09,1.5,2.45,3.24,3.71,4.77,0.92,1.1,2.21,2.58,2.59,3a0.61,0.61,0,0,0,.29.22,0.54,0.54,0,0,0,.5-0.08c0.22-.16,1.86-2,3.07-3.51,5.58-6.77,9.21-13,10.27-17.52a11.53,11.53,0,0,0,.35-2.94A12.92,12.92,0,0,0,227.49,246.42Zm-6.91,3.06a6.8,6.8,0,0,1-7,5.65,6.69,6.69,0,0,1-2.05-.42,9.5,9.5,0,0,1-1.22-.6,6.8,6.8,0,0,1-1-10.75,6.78,6.78,0,0,1,3.94-1.8,10.48,10.48,0,0,1,1.58,0,6.84,6.84,0,0,1,5.73,5.1,6,6,0,0,1,.19,1.66A5.6,5.6,0,0,1,220.58,249.48Z" transform="translate(-39.4 -68.86)"></path><path d="M197.58,213.11A14,14,0,0,0,188.07,203a14.32,14.32,0,0,0-4.9-.59A14,14,0,0,0,171.53,210a13.72,13.72,0,0,0-1.46,8c0.53,3.76,3,8.68,7.13,14.43,1.09,1.5,2.45,3.24,3.71,4.77,0.92,1.1,2.21,2.58,2.59,3a0.61,0.61,0,0,0,.29.22,0.54,0.54,0,0,0,.5-0.08c0.22-.16,1.86-2,3.07-3.51,5.58-6.77,9.21-13,10.27-17.52a11.53,11.53,0,0,0,.35-2.94A12.92,12.92,0,0,0,197.58,213.11Zm-6.91,3.06a6.8,6.8,0,0,1-7,5.65,6.69,6.69,0,0,1-2.05-.42,9.5,9.5,0,0,1-1.22-.6,6.8,6.8,0,0,1-1-10.75,6.78,6.78,0,0,1,3.94-1.8,10.48,10.48,0,0,1,1.58,0,6.84,6.84,0,0,1,5.73,5.1,6,6,0,0,1,.19,1.66A5.6,5.6,0,0,1,190.68,216.17Z" transform="translate(-39.4 -68.86)"></path><path d="M297.2,139.89a14,14,0,0,0-9.51-10.06,14.32,14.32,0,0,0-4.9-.59,14,14,0,0,0-11.64,7.52,13.72,13.72,0,0,0-1.46,8c0.53,3.76,3,8.68,7.13,14.43,1.09,1.5,2.45,3.24,3.71,4.77,0.92,1.1,2.21,2.58,2.59,3a0.61,0.61,0,0,0,.29.22,0.54,0.54,0,0,0,.5-0.08c0.22-.16,1.86-2,3.07-3.51,5.58-6.77,9.21-13,10.27-17.52a11.53,11.53,0,0,0,.35-2.94A12.92,12.92,0,0,0,297.2,139.89ZM290.3,143a6.8,6.8,0,0,1-7,5.65,6.69,6.69,0,0,1-2.05-.42,9.5,9.5,0,0,1-1.22-.6,6.8,6.8,0,0,1-1-10.75,6.78,6.78,0,0,1,3.94-1.8,10.48,10.48,0,0,1,1.58,0,6.84,6.84,0,0,1,5.73,5.1,6,6,0,0,1,.19,1.66A5.6,5.6,0,0,1,290.3,143Z" transform="translate(-39.4 -68.86)"></path><path d="M327,175.14a14,14,0,0,0-9.51-10.06,14.32,14.32,0,0,0-4.9-.59A14,14,0,0,0,300.91,172a13.72,13.72,0,0,0-1.46,8c0.53,3.76,3,8.68,7.13,14.43,1.09,1.5,2.45,3.24,3.71,4.77,0.92,1.1,2.21,2.58,2.59,3a0.61,0.61,0,0,0,.29.22,0.54,0.54,0,0,0,.5-0.08c0.22-.16,1.86-2,3.07-3.51,5.58-6.77,9.21-13,10.27-17.52a11.53,11.53,0,0,0,.35-2.94A12.92,12.92,0,0,0,327,175.14Zm-6.91,3.06a6.8,6.8,0,0,1-7,5.65,6.69,6.69,0,0,1-2.05-.42,9.5,9.5,0,0,1-1.22-.6,6.8,6.8,0,0,1-1-10.75,6.78,6.78,0,0,1,3.94-1.8,10.48,10.48,0,0,1,1.58,0,6.84,6.84,0,0,1,5.73,5.1,6,6,0,0,1,.19,1.66A5.6,5.6,0,0,1,320.06,178.2Z" transform="translate(-39.4 -68.86)"></path><path d="M300.34,226.84a14,14,0,0,0-9.51-10.06,14.32,14.32,0,0,0-4.9-.59,14,14,0,0,0-11.64,7.52,13.72,13.72,0,0,0-1.46,8c0.53,3.76,3,8.68,7.13,14.43,1.09,1.5,2.45,3.24,3.71,4.77,0.92,1.1,2.21,2.58,2.59,3a0.61,0.61,0,0,0,.29.22,0.54,0.54,0,0,0,.5-0.08c0.22-.16,1.86-2,3.07-3.51,5.58-6.77,9.21-13,10.27-17.52a11.53,11.53,0,0,0,.35-2.94A12.92,12.92,0,0,0,300.34,226.84Zm-6.91,3.06a6.8,6.8,0,0,1-7,5.65,6.69,6.69,0,0,1-2.05-.42,9.5,9.5,0,0,1-1.22-.6,6.8,6.8,0,0,1-1-10.75A6.78,6.78,0,0,1,286,222a10.48,10.48,0,0,1,1.58,0,6.84,6.84,0,0,1,5.73,5.1,6,6,0,0,1,.19,1.66A5.6,5.6,0,0,1,293.43,229.9Z" transform="translate(-39.4 -68.86)"></path></svg>