<?xml version="1.0" encoding="utf-8"?>
<!-- Generator: Adobe Illustrator 21.1.0, SVG Export Plug-In . SVG Version: 6.00 Build 0)  -->
<svg version="1.1" id="Layer_3" xmlns="http://www.w3.org/2000/svg" xmlns:xlink="http://www.w3.org/1999/xlink" x="0px" y="0px"
	 viewBox="0 0 364 261" style="enable-background:new 0 0 364 261;" xml:space="preserve">
<g>
	<circle fill="currentColor" cx="169.5" cy="128.9" r="128.3"/>
	<g>
		<path  d="M127.7,257.2c-2.7,0-5.6-0.3-8-0.9l-76.8-19c-14.6-3.7-25.3-16.6-25.3-30.9V61.9c0-9.2,5-18.5,13.4-25.1
			c5.5-4.3,13-6.8,20.5-6.8c2.7,0,5.4,0.3,8,1l63.8,16c1.5,0.4,3,0.6,4.6,0.6s3.1-0.2,4.6-0.6l89.9-22.5c2.6-0.6,5-1,7.6-1
			c1.9,0,3.8,0.2,5.8,0.5l74.9,14.1c14.7,2.8,25,15.6,25,31.3v145.1c0,10.1-3.7,18.8-10.6,24.5c-5.9,4.9-12.4,7.3-19.4,7.3
			c0,0,0,0,0,0c-1.9,0-3.9-0.2-5.8-0.6l-66.1-12.4c-1.2-0.2-2.3-0.3-3.5-0.3c-1.6,0-3.1,0.2-4.6,0.6l-90.1,22.5
			C133.1,256.9,130.4,257.2,127.7,257.2z M51.1,42.9c-4.5,0-9.1,1.5-12.3,4c-3.2,2.5-8.6,7.8-8.6,14.9v144.4c0,8.7,6,16.2,14.7,18.4
			l74.6,18.6V59.8L54.7,43.4C53.6,43.1,52.7,42.9,51.1,42.9z M132,59.8v183.5l89.3-22.2V37.6L132,59.8z M233.8,220.8l67,12.4
			c1.2,0.2,2.4,0.3,3.6,0.3c5.4,0,10.1-2.3,12.6-4.4c1.8-1.5,6.1-6,6.1-14.6V69.5c0-9.1-6.6-16.9-15.8-18.6l-73.5-13.7V220.8z"/>
		<path  d="M82.8,100.6c-1.2-4.8-4.8-8.6-9.5-10.1c-1.6-0.5-3.3-0.7-4.9-0.6c-4.9,0.3-9.3,3.1-11.6,7.5
			c-1.3,2.4-1.8,5.4-1.5,8c0.5,3.8,3,8.7,7.1,14.4c1.1,1.5,2.4,3.2,3.7,4.8c0.9,1.1,2.2,2.6,2.6,3c0.2,0.2,0.2,0.2,0.3,0.2
			c0.2,0.1,0.4,0,0.5-0.1c0.2-0.2,1.9-2,3.1-3.5c5.6-6.8,9.2-13,10.3-17.5c0.3-1.1,0.4-1.9,0.3-2.9C83.1,102.7,83,101.7,82.8,100.6z
			 M75.8,103.7c-0.3,1.7-1.2,3.2-2.6,4.3c-1.3,1-2.8,1.4-4.4,1.4c-0.7,0-1.4-0.2-2.1-0.4c-0.3-0.1-0.9-0.4-1.2-0.6
			c-1.3-0.8-2.3-2-2.8-3.4c-0.6-1.7-0.6-3.6,0.2-5.2c0.4-0.8,0.9-1.6,1.5-2.2c1.1-1,2.4-1.6,3.9-1.8c0.3,0,1.3,0,1.6,0
			c1.1,0.2,2,0.5,2.9,1.1c1.4,0.9,2.4,2.4,2.8,4c0.1,0.6,0.2,1,0.2,1.7C75.9,103.1,75.9,103.2,75.8,103.7z"/>
		<path  d="M98.4,147.6c-1.2-4.8-4.8-8.6-9.5-10.1c-1.6-0.5-3.3-0.7-4.9-0.6c-4.9,0.3-9.3,3.1-11.6,7.5
			c-1.3,2.4-1.8,5.4-1.5,8c0.5,3.8,3,8.7,7.1,14.4c1.1,1.5,2.4,3.2,3.7,4.8c0.9,1.1,2.2,2.6,2.6,3c0.2,0.2,0.2,0.2,0.3,0.2
			c0.2,0.1,0.4,0,0.5-0.1c0.2-0.2,1.9-2,3.1-3.5c5.6-6.8,9.2-13,10.3-17.5c0.3-1.1,0.4-1.9,0.3-2.9
			C98.8,149.7,98.7,148.7,98.4,147.6z M91.5,150.7c-0.3,1.7-1.2,3.2-2.6,4.3c-1.3,1-2.8,1.4-4.4,1.4c-0.7,0-1.4-0.2-2.1-0.4
			c-0.3-0.1-0.9-0.4-1.2-0.6c-1.3-0.8-2.3-2-2.8-3.4c-0.6-1.7-0.6-3.6,0.2-5.2c0.4-0.8,0.9-1.6,1.5-2.2c1.1-1,2.4-1.6,3.9-1.8
			c0.3,0,1.3,0,1.6,0c1.1,0.2,2,0.5,2.9,1.1c1.4,0.9,2.4,2.4,2.8,4c0.1,0.6,0.2,1,0.2,1.7C91.6,150.1,91.6,150.2,91.5,150.7z"/>
		<path  d="M201,112.4c-1.2-4.8-4.8-8.6-9.5-10.1c-1.6-0.5-3.3-0.7-4.9-0.6c-4.9,0.3-9.3,3.1-11.6,7.5
			c-1.3,2.4-1.8,5.4-1.5,8c0.5,3.8,3,8.7,7.1,14.4c1.1,1.5,2.4,3.2,3.7,4.8c0.9,1.1,2.2,2.6,2.6,3c0.2,0.2,0.2,0.2,0.3,0.2
			c0.2,0.1,0.4,0,0.5-0.1c0.2-0.2,1.9-2,3.1-3.5c5.6-6.8,9.2-13,10.3-17.5c0.3-1.1,0.4-1.9,0.3-2.9
			C201.4,114.5,201.3,113.5,201,112.4z M194.1,115.4c-0.3,1.7-1.2,3.2-2.6,4.3c-1.3,1-2.8,1.4-4.4,1.4c-0.7,0-1.4-0.2-2.1-0.4
			c-0.3-0.1-0.9-0.4-1.2-0.6c-1.3-0.8-2.3-2-2.8-3.4c-0.6-1.7-0.6-3.6,0.2-5.2c0.4-0.8,0.9-1.6,1.5-2.2c1.1-1,2.4-1.6,3.9-1.8
			c0.3,0,1.3,0,1.6,0c1.1,0.2,2,0.5,2.9,1.1c1.4,0.9,2.4,2.4,2.8,4c0.1,0.6,0.2,1,0.2,1.7C194.2,114.8,194.2,115,194.1,115.4z"/>
		<path  d="M205.7,178.2c-1.2-4.8-4.8-8.6-9.5-10.1c-1.6-0.5-3.3-0.7-4.9-0.6c-4.9,0.3-9.3,3.1-11.6,7.5
			c-1.3,2.4-1.8,5.4-1.5,8c0.5,3.8,3,8.7,7.1,14.4c1.1,1.5,2.4,3.2,3.7,4.8c0.9,1.1,2.2,2.6,2.6,3c0.2,0.2,0.2,0.2,0.3,0.2
			c0.2,0.1,0.4,0,0.5-0.1c0.2-0.2,1.9-2,3.1-3.5c5.6-6.8,9.2-13,10.3-17.5c0.3-1.1,0.4-1.9,0.3-2.9
			C206.1,180.3,206,179.3,205.7,178.2z M198.8,181.2c-0.3,1.7-1.2,3.2-2.6,4.3c-1.3,1-2.8,1.4-4.4,1.4c-0.7,0-1.4-0.2-2.1-0.4
			c-0.3-0.1-0.9-0.4-1.2-0.6c-1.3-0.8-2.3-2-2.8-3.4c-0.6-1.7-0.6-3.6,0.2-5.2c0.4-0.8,0.9-1.6,1.5-2.2c1.1-1,2.4-1.6,3.9-1.8
			c0.3,0,1.3,0,1.6,0c1.1,0.2,2,0.5,2.9,1.1c1.4,0.9,2.4,2.4,2.8,4c0.1,0.6,0.2,1,0.2,1.7C198.9,180.6,198.9,180.8,198.8,181.2z"/>
		<path  d="M175.8,144.9c-1.2-4.8-4.8-8.6-9.5-10.1c-1.6-0.5-3.3-0.7-4.9-0.6c-4.9,0.3-9.3,3.1-11.6,7.5
			c-1.3,2.4-1.8,5.4-1.5,8c0.5,3.8,3,8.7,7.1,14.4c1.1,1.5,2.4,3.2,3.7,4.8c0.9,1.1,2.2,2.6,2.6,3c0.2,0.2,0.2,0.2,0.3,0.2
			c0.2,0.1,0.4,0,0.5-0.1c0.2-0.2,1.9-2,3.1-3.5c5.6-6.8,9.2-13,10.3-17.5c0.3-1.1,0.4-1.9,0.3-2.9
			C176.2,146.9,176.1,146,175.8,144.9z M168.9,147.9c-0.3,1.7-1.2,3.2-2.6,4.3c-1.3,1-2.8,1.4-4.4,1.4c-0.7,0-1.4-0.2-2.1-0.4
			c-0.3-0.1-0.9-0.4-1.2-0.6c-1.3-0.8-2.3-2-2.8-3.4c-0.6-1.7-0.6-3.6,0.2-5.2c0.4-0.8,0.9-1.6,1.5-2.2c1.1-1,2.4-1.6,3.9-1.8
			c0.3,0,1.3,0,1.6,0c1.1,0.2,2,0.5,2.9,1.1c1.4,0.9,2.4,2.4,2.8,4c0.1,0.6,0.2,1,0.2,1.7C169,147.3,169,147.5,168.9,147.9z"/>
		<path  d="M275.4,71.6c-1.2-4.8-4.8-8.6-9.5-10.1c-1.6-0.5-3.3-0.7-4.9-0.6c-4.9,0.3-9.3,3.1-11.6,7.5
			c-1.3,2.4-1.8,5.4-1.5,8c0.5,3.8,3,8.7,7.1,14.4c1.1,1.5,2.4,3.2,3.7,4.8c0.9,1.1,2.2,2.6,2.6,3c0.2,0.2,0.2,0.2,0.3,0.2
			c0.2,0.1,0.4,0,0.5-0.1c0.2-0.2,1.9-2,3.1-3.5c5.6-6.8,9.2-13,10.3-17.5c0.3-1.1,0.4-1.9,0.3-2.9
			C275.8,73.7,275.7,72.8,275.4,71.6z M268.5,74.7c-0.3,1.7-1.2,3.2-2.6,4.3c-1.3,1-2.8,1.4-4.4,1.4c-0.7,0-1.4-0.2-2.1-0.4
			c-0.3-0.1-0.9-0.4-1.2-0.6c-1.3-0.8-2.3-2-2.8-3.4c-0.6-1.7-0.6-3.6,0.2-5.2c0.4-0.8,0.9-1.6,1.5-2.2c1.1-1,2.4-1.6,3.9-1.8
			c0.3,0,1.3,0,1.6,0c1.1,0.2,2,0.5,2.9,1.1c1.4,0.9,2.4,2.4,2.8,4c0.1,0.6,0.2,1,0.2,1.7C268.6,74.1,268.6,74.3,268.5,74.7z"/>
		<path  d="M305.2,106.9c-1.2-4.8-4.8-8.6-9.5-10.1c-1.6-0.5-3.3-0.7-4.9-0.6c-4.9,0.3-9.3,3.1-11.6,7.5
			c-1.3,2.4-1.8,5.4-1.5,8c0.5,3.8,3,8.7,7.1,14.4c1.1,1.5,2.4,3.2,3.7,4.8c0.9,1.1,2.2,2.6,2.6,3c0.2,0.2,0.2,0.2,0.3,0.2
			c0.2,0.1,0.4,0,0.5-0.1c0.2-0.2,1.9-2,3.1-3.5c5.6-6.8,9.2-13,10.3-17.5c0.3-1.1,0.4-1.9,0.3-2.9C305.6,109,305.5,108,305.2,106.9
			z M298.3,109.9c-0.3,1.7-1.2,3.2-2.6,4.3c-1.3,1-2.8,1.4-4.4,1.4c-0.7,0-1.4-0.2-2.1-0.4c-0.3-0.1-0.9-0.4-1.2-0.6
			c-1.3-0.8-2.3-2-2.8-3.4c-0.6-1.7-0.6-3.6,0.2-5.2c0.4-0.8,0.9-1.6,1.5-2.2c1.1-1,2.4-1.6,3.9-1.8c0.3,0,1.3,0,1.6,0
			c1.1,0.2,2,0.5,2.9,1.1c1.4,0.9,2.4,2.4,2.8,4c0.1,0.6,0.2,1,0.2,1.7C298.4,109.3,298.4,109.5,298.3,109.9z"/>
		<path  d="M278.6,158.6c-1.2-4.8-4.8-8.6-9.5-10.1c-1.6-0.5-3.3-0.7-4.9-0.6c-4.9,0.3-9.3,3.1-11.6,7.5
			c-1.3,2.4-1.8,5.4-1.5,8c0.5,3.8,3,8.7,7.1,14.4c1.1,1.5,2.4,3.2,3.7,4.8c0.9,1.1,2.2,2.6,2.6,3c0.2,0.2,0.2,0.2,0.3,0.2
			c0.2,0.1,0.4,0,0.5-0.1c0.2-0.2,1.9-2,3.1-3.5c5.6-6.8,9.2-13,10.3-17.5c0.3-1.1,0.4-1.9,0.3-2.9
			C279,160.7,278.9,159.7,278.6,158.6z M271.7,161.6c-0.3,1.7-1.2,3.2-2.6,4.3c-1.3,1-2.8,1.4-4.4,1.4c-0.7,0-1.4-0.2-2.1-0.4
			c-0.3-0.1-0.9-0.4-1.2-0.6c-1.3-0.8-2.3-2-2.8-3.4c-0.6-1.7-0.6-3.6,0.2-5.2c0.4-0.8,0.9-1.6,1.5-2.2c1.1-1,2.4-1.6,3.9-1.8
			c0.3,0,1.3,0,1.6,0c1.1,0.2,2,0.5,2.9,1.1c1.4,0.9,2.4,2.4,2.8,4c0.1,0.6,0.2,1,0.2,1.7C271.8,161,271.7,161.2,271.7,161.6z"/>
	</g>
</g>
</svg>
