<svg width="100%" height="100%" viewBox="0 0 16 16" version="1.1" xmlns="http://www.w3.org/2000/svg" xmlns:xlink="http://www.w3.org/1999/xlink" xml:space="preserve" style="fill-rule:evenodd;clip-rule:evenodd;stroke-linejoin:round;stroke-miterlimit:1.41421;"><g><path d="M15.702,4.428c-0.297,-1.228 -0.893,-1.675 -1.935,-1.861c-0.595,-0.074 -3.497,-0.186 -5.767,-0.186c-2.307,0 -5.172,0.112 -5.767,0.186c-1.042,0.186 -1.638,0.633 -1.973,1.861c-0.074,0.409 -0.26,2.642 -0.26,3.46l0,0.186c0,0.856 0.186,3.089 0.26,3.498c0.298,1.191 0.893,1.675 1.935,1.823c0.596,0.075 3.498,0.186 5.768,0.186c2.307,0 5.172,-0.111 5.767,-0.186c1.042,-0.148 1.675,-0.632 1.972,-1.823c0.112,-0.409 0.298,-2.642 0.298,-3.498l0,-0.186c0,-0.818 -0.186,-3.051 -0.298,-3.46ZM6.326,10.233l0,-4.503l4.204,2.196l-4.204,2.307Z" style="fill-rule:nonzero;"/></g></svg>